<?xml version="1.0" standalone="no"?>
<!DOCTYPE svg PUBLIC "-//W3C//DTD SVG 20010904//EN"
 "http://www.w3.org/TR/2001/REC-SVG-20010904/DTD/svg10.dtd">
<svg version="1.0" xmlns="http://www.w3.org/2000/svg"
 width="300.000000pt" height="296.000000pt" viewBox="0 0 300.000000 296.000000"
 preserveAspectRatio="xMidYMid meet">
<metadata>
Created by potrace 1.10, written by Peter Selinger 2001-2011
</metadata>
<g transform="translate(0.000000,296.000000) scale(0.100000,-0.100000)"
fill="#000000" stroke="none">
<path d="M355 2940 c-4 -11 -16 -20 -28 -21 -20 -1 -20 -2 3 -8 14 -4 25 -13
25 -21 0 -9 -11 -16 -25 -18 -52 -6 -70 -13 -70 -28 0 -12 9 -15 42 -13 26 2
43 -1 46 -9 2 -6 15 -12 28 -12 14 0 22 4 19 10 -10 16 31 11 45 -6 12 -13 15
-9 28 27 10 32 11 48 3 66 -10 21 -9 23 7 14 10 -6 24 -17 32 -25 10 -13 10
-16 -4 -16 -10 0 -14 -5 -11 -10 4 -6 11 -8 16 -5 5 4 9 1 9 -4 0 -6 -5 -11
-10 -11 -6 0 -19 -19 -29 -42 l-17 -41 -20 21 c-12 13 -24 18 -32 13 -10 -6
-7 -12 12 -24 30 -20 68 -23 61 -4 -4 9 8 12 45 11 37 0 50 3 50 13 0 8 -4 11
-10 8 -5 -3 -10 -1 -10 5 0 7 -6 8 -19 0 -25 -13 -51 -13 -51 0 0 6 9 10 20
10 17 0 25 14 22 41 -1 3 9 4 22 2 13 -3 27 1 31 8 5 8 4 10 -3 5 -7 -4 -12
-2 -12 3 0 6 -7 11 -15 11 -8 0 -15 4 -15 10 0 5 -7 7 -15 4 -10 -4 -15 0 -15
15 0 15 -6 21 -21 21 -11 0 -17 5 -14 10 3 6 1 10 -5 10 -6 0 -13 -7 -16 -15
-4 -8 -11 -15 -16 -15 -6 0 -8 7 -4 15 4 12 -3 15 -34 15 -30 0 -40 -5 -45
-20z m60 -10 c-4 -11 -2 -20 4 -20 6 0 11 -9 11 -20 0 -11 7 -20 15 -20 8 0
15 -5 15 -10 0 -12 -89 -10 -96 2 -10 15 7 30 21 18 9 -8 14 -6 19 6 6 16 -18
43 -39 44 -17 1 19 20 38 20 14 0 17 -5 12 -20z"/>
<path d="M574 2948 c-3 -5 -10 -5 -16 -2 -6 4 -6 -2 1 -15 14 -25 26 -28 17
-5 -5 14 -4 15 9 4 9 -7 14 -19 11 -27 -3 -7 -1 -13 4 -13 6 0 10 5 10 10 0 6
12 22 26 35 l26 24 -42 -2 c-23 -1 -44 -5 -46 -9z"/>
<path d="M836 2951 c-9 -14 4 -41 20 -41 8 0 11 6 7 17 -4 11 -3 14 5 9 7 -4
12 -5 12 -2 0 11 -39 26 -44 17z"/>
<path d="M1154 2946 c34 -11 53 -30 55 -58 1 -5 -6 -8 -15 -8 -11 0 -14 -5 -9
-17 17 -43 16 -46 -9 -18 -14 17 -25 25 -26 18 0 -6 3 -13 8 -15 11 -5 52 -66
52 -79 0 -6 6 -9 14 -6 8 3 16 2 18 -3 2 -5 8 1 14 14 9 20 8 23 -7 19 -23 -7
-43 15 -47 50 -2 19 2 27 13 27 11 0 14 6 9 25 -4 15 -2 25 5 25 6 0 11 -6 11
-14 0 -10 10 -14 31 -14 19 1 39 -7 52 -20 13 -13 16 -22 9 -22 -10 0 -10 -3
0 -14 9 -10 20 -11 40 -4 16 6 28 14 28 19 0 13 37 11 46 -2 4 -8 -1 -9 -16
-4 l-22 7 22 -22 c20 -20 23 -21 38 -6 9 9 11 16 6 16 -7 0 -9 11 -6 25 4 23
2 25 -22 21 -19 -3 -26 0 -26 11 0 9 6 13 15 9 16 -6 20 10 9 38 -7 18 -39 22
-49 6 -3 -5 -1 -10 4 -10 6 0 11 -10 11 -22 0 -21 0 -21 -22 -2 l-21 19 18
-28 c16 -24 16 -30 4 -38 -22 -14 -49 -10 -49 7 0 11 6 14 23 10 12 -3 16 -3
9 0 -6 3 -10 9 -7 14 2 4 -10 6 -28 5 -41 -4 -87 5 -87 16 0 5 11 9 25 9 17 0
25 5 25 18 0 12 -3 13 -8 5 -12 -19 -80 -24 -96 -7 -8 8 -30 14 -48 13 l-33
-1 39 -12z"/>
<path d="M1906 2944 c-3 -8 -3 -20 0 -28 3 -8 0 -13 -8 -13 -7 1 -14 -2 -16
-8 -7 -20 -36 -45 -53 -45 -10 0 -21 -9 -24 -20 -4 -12 -14 -19 -23 -18 -13 2
-17 -4 -16 -24 1 -30 -3 -33 -26 -18 -8 5 -19 5 -25 0 -6 -5 -46 -8 -89 -7
-62 2 -80 6 -91 21 -8 10 -18 15 -24 11 -6 -3 -11 -2 -11 3 0 11 -83 11 -90 0
-3 -4 -18 -1 -32 6 -23 12 -27 12 -32 0 -7 -18 23 -47 41 -40 8 3 28 6 44 6
20 0 28 4 23 12 -4 6 -3 8 4 4 5 -3 13 0 16 6 3 7 3 3 0 -10 -5 -21 -3 -22 23
-17 27 6 27 6 8 -10 -14 -12 -16 -16 -5 -15 28 4 41 0 35 -10 -3 -5 1 -10 10
-10 10 0 13 5 9 12 -5 8 -2 9 10 5 10 -4 42 -10 72 -13 40 -5 54 -4 54 6 0 7
-8 10 -20 7 -11 -3 -20 -1 -20 4 0 5 11 9 25 9 20 0 25 -5 25 -27 0 -29 10
-26 14 4 3 16 12 18 87 17 71 -2 76 -1 34 6 -57 8 -38 12 50 11 40 -1 55 1 46
8 -8 5 -25 7 -38 5 -14 -3 -26 1 -29 10 -4 11 -12 13 -31 5 -30 -11 -28 8 3
25 10 6 22 16 27 23 4 7 14 10 21 7 9 -3 17 4 22 18 4 13 15 29 25 36 11 7 19
21 19 31 0 23 -36 35 -44 15z"/>
<path d="M735 2940 c-3 -5 -15 -10 -26 -10 -24 0 -25 -16 -1 -25 15 -6 13 -9
-10 -21 -34 -18 -34 -19 -3 -20 14 -1 23 2 20 6 -3 5 0 12 6 15 5 4 8 13 5 20
-5 14 20 30 43 26 7 -1 10 2 6 8 -8 14 -32 14 -40 1z"/>
<path d="M955 2940 c3 -6 -4 -10 -17 -10 -16 0 -19 -3 -10 -8 7 -5 10 -16 6
-25 -3 -10 -1 -17 6 -17 6 0 8 5 4 12 -5 7 -2 9 9 5 12 -5 15 1 15 24 -1 16
-5 29 -10 29 -5 0 -6 -4 -3 -10z"/>
<path d="M893 2913 c4 -17 1 -20 -12 -16 -10 3 -6 -4 9 -17 14 -13 24 -28 22
-34 -2 -6 0 -8 4 -4 4 4 13 3 21 -3 18 -16 16 -4 -3 15 -8 9 -17 26 -19 38 -3
12 -10 26 -16 32 -9 8 -10 5 -6 -11z"/>
<path d="M780 2901 c6 -12 13 -21 16 -21 3 0 2 5 -1 10 -9 14 9 12 24 -2 10
-11 12 -9 9 7 -2 13 -12 21 -31 23 -26 3 -28 2 -17 -17z"/>
<path d="M980 2884 c0 -9 -5 -12 -11 -8 -7 4 -10 1 -7 -7 3 -8 9 -14 14 -14 5
0 15 -4 23 -9 10 -7 12 -4 6 14 -5 15 -3 20 3 16 6 -3 13 -2 16 3 3 5 -1 12
-10 15 -25 10 -34 7 -34 -10z"/>
<path d="M1257 2864 c5 -14 3 -16 -11 -11 -10 4 -15 3 -11 -3 3 -6 2 -10 -4
-10 -6 0 -7 -8 -4 -17 4 -11 8 -12 11 -5 7 22 30 12 40 -18 8 -23 15 -28 29
-23 33 12 42 37 17 47 -14 5 -15 4 -5 -8 10 -12 9 -14 -8 -9 -10 3 -25 18 -31
34 -13 31 -34 52 -23 23z"/>
<path d="M2452 2871 c-11 -7 -10 -9 2 -14 9 -4 16 -13 16 -21 0 -8 4 -17 9
-21 11 -6 7 27 -6 49 -5 9 -13 12 -21 7z"/>
<path d="M967 2833 c-4 -7 1 -14 13 -18 11 -3 20 -13 20 -21 0 -17 -14 -18
-41 -4 -12 7 -19 7 -19 1 0 -6 9 -15 21 -21 25 -14 53 5 46 32 -6 23 9 23 22
1 9 -16 10 -15 8 5 -1 20 -5 23 -28 18 -17 -3 -29 -1 -31 6 -3 9 -6 9 -11 1z"/>
<path d="M630 2812 l-23 -19 34 0 c19 0 25 2 15 4 -15 4 -16 7 -5 13 7 5 11
12 8 15 -4 3 -17 -3 -29 -13z"/>
<path d="M828 2786 c-4 -18 -1 -23 10 -18 10 3 13 1 8 -6 -4 -7 -2 -12 3 -12
6 0 11 7 11 15 0 8 -4 15 -10 15 -5 0 -7 7 -4 15 4 8 2 15 -4 15 -5 0 -12 -11
-14 -24z"/>
<path d="M2194 2785 c-4 -18 -13 -25 -29 -25 -13 0 -27 -4 -30 -10 -9 -15 37
-12 57 4 10 7 15 16 11 20 -4 4 -1 11 6 15 9 6 10 11 2 15 -6 4 -13 -4 -17
-19z"/>
<path d="M258 2793 c-15 -4 -16 -8 -7 -24 10 -19 12 -19 34 -5 29 19 55 21 55
4 1 -19 36 -58 52 -58 7 0 1 10 -14 21 -16 11 -28 29 -28 39 0 12 -10 20 -31
24 -33 6 -34 6 -61 -1z"/>
<path d="M1985 2787 c-19 -15 -13 -37 11 -37 8 0 14 10 14 25 0 29 0 29 -25
12z"/>
<path d="M2255 2780 c-3 -5 7 -13 22 -16 15 -4 37 -13 48 -19 11 -7 31 -9 45
-5 23 6 22 7 -15 14 -21 4 -52 14 -67 22 -16 8 -29 10 -33 4z"/>
<path d="M0 2768 c0 -15 54 -48 78 -47 12 0 10 3 -5 9 -13 5 -23 14 -23 20 0
6 -4 9 -9 5 -5 -3 -17 2 -25 11 -12 11 -16 12 -16 2z"/>
<path d="M360 2770 c0 -5 5 -10 11 -10 7 0 18 -8 25 -17 17 -25 28 -10 12 16
-13 21 -48 29 -48 11z"/>
<path d="M120 2761 c0 -4 6 -13 13 -20 10 -10 8 -11 -8 -5 -15 5 -17 4 -9 -5
13 -14 44 -4 44 14 0 7 -9 15 -20 18 -11 3 -20 2 -20 -2z"/>
<path d="M1160 2759 c0 -6 -9 -8 -21 -4 -14 5 -19 3 -15 -3 4 -6 -2 -8 -14 -5
-16 4 -19 2 -14 -11 4 -11 13 -15 23 -11 9 4 28 9 43 12 17 3 25 10 21 19 -6
16 -23 19 -23 3z"/>
<path d="M2230 2753 c-8 -2 -22 -7 -30 -9 -23 -8 8 -24 47 -24 71 0 193 -68
193 -107 0 -7 4 -13 10 -13 5 0 7 -12 5 -27 -12 -73 -12 -175 1 -210 7 -21 13
-58 14 -83 0 -33 3 -41 10 -30 8 11 10 7 8 -18 -1 -20 -10 -37 -20 -43 -23
-12 -26 -12 -31 9 -4 15 -5 15 -6 0 -2 -26 -135 -23 -172 4 -15 11 -33 18 -40
16 -8 -3 -18 5 -24 16 -14 27 -82 35 -91 11 -4 -9 -13 -13 -24 -10 -40 13 -57
-61 -30 -123 18 -39 18 -43 3 -49 -21 -8 -49 27 -30 40 9 6 8 7 -3 4 -9 -2
-15 -15 -15 -33 0 -32 8 -33 107 -19 l46 7 46 -69 c25 -39 46 -76 46 -82 0 -6
6 -22 14 -34 19 -29 17 -308 -2 -315 -7 -2 -33 -18 -59 -36 -54 -37 -109 -128
-121 -198 l-7 -43 -80 -8 c-44 -4 -186 -10 -317 -12 -190 -5 -239 -3 -250 8
-7 8 -19 12 -26 9 -7 -2 -20 4 -28 14 -14 18 -15 18 -9 -3 4 -13 3 -23 -2 -23
-69 0 -338 43 -376 59 -27 12 -57 21 -67 21 -9 0 -23 7 -30 15 -7 8 -17 12
-22 9 -5 -3 -20 -3 -34 0 -22 6 -24 11 -24 63 0 73 -11 62 -14 -14 l-3 -59 56
-13 c31 -6 79 -20 106 -31 28 -10 59 -21 70 -25 20 -7 20 -7 0 -15 -19 -8 -19
-9 3 -9 12 -1 22 4 22 9 0 6 15 8 38 5 20 -2 69 -7 107 -10 39 -3 107 -10 152
-17 56 -7 185 -9 402 -5 307 5 320 6 340 26 12 12 16 21 11 21 -13 0 -4 39 23
103 18 44 107 137 130 137 5 0 7 -16 5 -36 -4 -30 0 -38 19 -47 13 -6 26 -7
31 -2 4 4 2 10 -4 12 -7 2 -10 13 -7 23 3 11 0 20 -6 20 -13 0 -8 39 8 67 8
14 11 15 11 3 1 -13 2 -13 9 0 5 8 6 35 1 60 -5 25 -6 49 -2 54 14 23 10 64
-9 104 -12 23 -19 52 -16 63 3 12 -5 40 -18 66 -16 29 -20 43 -11 40 7 -3 19
0 26 6 10 9 11 9 6 0 -3 -6 -1 -15 5 -19 7 -4 9 -3 6 3 -4 6 3 23 15 39 24 30
33 101 17 141 -10 27 15 38 66 29 20 -4 50 0 77 10 23 8 72 25 107 36 60 20
65 20 98 4 42 -20 55 -14 43 19 -7 20 -6 25 5 25 8 0 15 -7 15 -16 0 -14 3
-14 15 -4 26 22 16 80 -14 80 -24 0 -41 -20 -41 -49 0 -31 -16 -17 -23 19 -3
18 -5 15 -6 -13 l-1 -37 -50 1 c-27 1 -55 -2 -62 -7 -19 -15 -70 -35 -65 -27
4 7 -11 135 -38 328 l-5 40 15 -47 c10 -32 21 -48 33 -49 9 0 38 -4 65 -8 26
-4 47 -4 47 1 0 4 -7 8 -16 8 -14 0 -15 2 -3 17 10 12 11 15 1 9 -7 -4 -28 1
-48 13 -46 27 -59 27 -16 0 31 -21 42 -39 22 -39 -21 0 -60 33 -60 50 0 10 -7
23 -15 30 -20 17 -19 37 3 49 16 10 16 10 -2 11 -11 0 -17 3 -13 6 3 4 -13 22
-36 42 -23 19 -41 38 -40 43 2 4 -12 5 -30 2 -24 -3 -39 0 -50 12 -9 9 -21 14
-26 11 -5 -3 -14 1 -21 9 -13 16 -16 16 -40 8z m-92 -546 c2 -10 -3 -17 -12
-17 -18 0 -29 16 -21 31 9 14 29 6 33 -14z m172 -108 c16 -38 9 -93 -12 -97
-10 -2 -35 14 -58 35 -31 31 -42 50 -50 92 -9 47 -8 55 7 66 15 11 23 7 60
-28 23 -22 47 -53 53 -68z m-178 56 c21 -5 25 -12 23 -32 -3 -29 -20 -43 -52
-43 -16 0 -21 4 -17 15 4 8 11 15 18 15 6 0 4 6 -5 13 -19 15 -31 46 -23 59 5
7 11 5 19 -5 6 -9 23 -19 37 -22z"/>
<path d="M1017 2737 c-16 -6 -26 -16 -23 -24 3 -7 -1 -13 -8 -13 -8 0 -16 6
-19 13 -2 6 -7 9 -11 6 -3 -3 3 -15 14 -27 19 -20 19 -22 3 -23 -16 0 -16 -1
2 -8 11 -5 24 -6 28 -4 5 3 7 -3 5 -13 -2 -11 -11 -18 -20 -18 -13 1 -14 -2
-6 -15 8 -13 4 -40 -15 -107 -14 -49 -38 -143 -54 -209 -15 -66 -31 -121 -35
-123 -5 -2 -8 -8 -8 -13 0 -5 12 -3 28 3 37 16 54 32 23 23 -21 -6 -23 -5 -17
11 7 18 77 284 98 372 5 23 13 42 17 42 4 0 5 16 3 35 -2 20 -8 32 -14 29 -6
-4 -8 2 -6 12 2 11 9 18 15 17 5 -1 15 9 21 22 7 14 11 25 9 24 -1 -1 -15 -6
-30 -12z"/>
<path d="M1279 2742 c-1 -4 -1 -9 -1 -12 0 -3 -7 -7 -16 -8 -84 -10 -100 -15
-95 -28 4 -11 10 -11 40 1 19 8 47 13 63 11 18 -2 27 1 24 8 -2 6 8 12 23 13
60 4 148 15 152 19 2 2 -40 3 -93 3 -53 0 -97 -3 -97 -7z"/>
<path d="M320 2731 c0 -5 6 -11 13 -14 9 -3 9 -9 -1 -26 -7 -11 -8 -21 -3 -21
16 0 23 20 17 46 -6 23 -26 34 -26 15z"/>
<path d="M1892 2735 c3 -3 26 -6 51 -7 26 0 44 -4 42 -8 -3 -4 2 -11 11 -14
24 -9 36 -7 29 4 -4 6 -11 7 -17 4 -7 -5 -9 -1 -5 9 6 15 -2 17 -55 17 -34 0
-59 -2 -56 -5z"/>
<path d="M528 2716 c-10 -7 -18 -16 -18 -19 0 -4 8 -3 18 0 14 6 15 4 4 -9
-11 -13 -10 -16 5 -14 18 1 66 37 59 44 -2 2 -13 -1 -24 -7 -16 -9 -21 -8 -24
3 -2 12 -6 12 -20 2z"/>
<path d="M2075 2712 c28 -10 54 -15 59 -10 14 12 6 15 -54 22 l-55 6 50 -18z"/>
<path d="M2466 2721 c-3 -5 -16 -7 -28 -3 -13 3 -19 1 -15 -5 4 -6 16 -13 27
-16 11 -3 18 -1 15 3 -3 5 3 10 12 12 12 2 14 6 6 11 -6 4 -14 3 -17 -2z"/>
<path d="M80 2700 l-25 -8 25 -2 c14 -1 29 -2 34 -1 5 1 26 -5 48 -14 42 -16
103 -21 79 -6 -8 5 -19 7 -26 5 -6 -3 -33 4 -59 16 -26 11 -48 20 -49 19 -1
-1 -13 -5 -27 -9z"/>
<path d="M2160 2693 c0 -9 6 -13 15 -10 8 4 17 3 19 -2 3 -4 24 -8 47 -9 23
-1 47 -6 53 -11 15 -12 94 -25 81 -14 -5 5 -28 15 -50 21 -22 6 -51 15 -65 19
-14 4 -33 6 -44 4 -10 -1 -16 1 -13 6 3 4 -6 9 -19 9 -15 1 -24 -4 -24 -13z"/>
<path d="M900 2679 c0 -12 -10 -18 -35 -21 -19 -2 -35 0 -35 4 0 4 -5 8 -12 8
-9 0 -8 -5 2 -15 25 -24 109 3 110 36 0 3 -7 6 -15 6 -8 0 -15 -8 -15 -18z"/>
<path d="M1456 2683 c-1 -1 -38 -5 -81 -8 -132 -10 -98 -16 63 -12 84 2 155 7
159 11 3 3 -7 7 -23 7 -70 3 -116 4 -118 2z"/>
<path d="M2586 2675 c-8 -22 35 -41 60 -26 16 9 14 10 -14 11 -18 0 -31 4 -27
9 3 5 1 12 -4 15 -5 3 -12 -1 -15 -9z"/>
<path d="M267 2666 c-4 -9 -21 -23 -39 -31 -18 -8 -25 -13 -15 -10 10 3 25 5
32 5 15 0 40 38 32 46 -2 3 -7 -2 -10 -10z"/>
<path d="M614 2664 c0 -9 -5 -19 -11 -21 -8 -3 -13 3 -13 14 -1 16 -2 16 -10
2 -10 -18 -76 -20 -73 -3 1 5 -10 10 -23 10 -32 2 -30 -2 6 -21 17 -9 28 -20
25 -25 -4 -6 -2 -10 4 -10 5 0 13 5 17 11 4 8 9 7 15 -2 6 -10 9 -11 9 -1 0 7
13 12 31 12 19 0 28 -4 23 -11 -4 -8 0 -8 15 0 24 13 25 19 7 44 -17 21 -24
22 -22 1z"/>
<path d="M1610 2668 c0 -5 8 -8 18 -7 35 3 47 -2 25 -11 -12 -5 -93 -9 -180
-9 -259 1 -366 -14 -406 -54 -12 -12 -25 -21 -29 -20 -4 2 -5 -3 -2 -11 3 -7
-4 -40 -15 -72 -21 -65 -47 -211 -38 -220 3 -3 11 21 17 53 7 32 16 63 21 69
5 6 6 13 3 17 -3 3 2 32 12 64 10 32 18 62 18 68 1 5 12 15 26 22 14 7 21 13
16 13 -5 0 -3 7 4 15 7 8 17 12 23 8 6 -3 7 -1 3 5 -9 15 -1 15 24 0 16 -10
22 -10 28 -1 4 7 16 12 27 12 11 0 57 2 103 5 62 5 82 3 82 -7 0 -8 3 -9 8 -1
13 20 47 32 74 27 15 -3 26 -9 23 -13 -9 -15 24 -19 35 -4 15 17 40 19 40 3 0
-6 -7 -9 -15 -5 -9 3 -15 0 -15 -8 0 -9 8 -13 23 -10 l22 5 -23 -12 c-18 -10
-28 -9 -55 6 -32 17 -35 17 -60 0 -14 -9 -32 -13 -39 -9 -10 5 -10 4 -1 -6 18
-19 -4 -70 -30 -71 -19 0 -18 -2 5 -11 25 -9 26 -11 12 -25 -12 -12 -12 -18
-3 -23 6 -4 9 -12 5 -18 -3 -6 -1 -12 5 -14 9 -3 9 -9 0 -26 -9 -17 -9 -22 0
-22 8 0 6 -7 -5 -19 -15 -16 -15 -19 -1 -24 8 -4 21 -4 29 -1 20 8 29 -11 12
-26 -11 -9 -20 -8 -38 4 -17 11 -34 13 -65 7 -24 -5 -40 -4 -37 0 3 5 0 9 -5
9 -6 0 -11 -5 -11 -11 0 -6 -9 -8 -20 -4 -14 5 -20 2 -20 -9 0 -20 76 -23 83
-3 3 9 9 9 23 1 26 -15 100 -9 118 9 18 17 60 11 52 -8 -3 -8 6 -12 27 -12 77
0 87 -3 87 -23 0 -15 7 -20 29 -20 17 0 33 -5 37 -11 5 -9 -1 -10 -22 -5 -46
12 -181 15 -304 7 l-115 -8 115 -2 c115 -2 455 -17 584 -26 38 -3 67 -2 63 1
-6 7 -119 21 -232 30 -88 6 -95 9 -95 33 0 11 6 23 13 28 16 10 197 11 191 1
-9 -14 33 -8 46 6 12 15 44 11 35 -4 -3 -5 26 -8 64 -7 38 1 67 5 65 9 -3 5 1
8 9 8 9 0 18 14 22 33 24 115 13 199 -28 211 -32 9 -287 25 -303 19 -8 -3 -14
-1 -14 5 0 5 -12 9 -27 8 -23 -1 -29 4 -31 27 -3 25 -1 27 37 27 84 0 452 -44
515 -61 59 -16 96 -58 96 -108 0 -23 3 -41 8 -41 9 0 8 87 -2 118 -4 12 -11
20 -16 17 -5 -3 -21 1 -34 10 -32 21 -213 51 -428 69 -94 9 -173 18 -176 21
-3 3 0 5 6 5 7 0 12 4 12 10 0 5 -30 9 -70 8 -38 0 -70 -5 -70 -10z m103 -29
c-8 -74 -24 -244 -30 -306 -4 -53 -10 -73 -20 -73 -10 0 -12 9 -8 33 6 38 35
331 35 359 0 11 5 18 13 15 6 -2 11 -15 10 -28z m-106 -61 c-12 -19 -37 -25
-37 -9 0 6 5 13 11 16 6 4 8 13 5 21 -4 11 -2 11 13 2 15 -9 17 -15 8 -30z
m59 -43 c-4 -20 -11 -33 -17 -29 -6 3 -9 -2 -7 -12 2 -13 -3 -19 -14 -18 -19
2 -25 -12 -8 -18 6 -2 -5 -20 -23 -41 -34 -36 -36 -46 -7 -27 9 6 17 5 22 -3
5 -8 8 -6 8 6 0 9 6 17 13 18 10 0 10 2 0 6 -17 6 -17 23 0 23 11 0 16 -58 8
-104 -1 -10 -194 -2 -212 9 -8 6 -10 31 -6 89 9 122 2 116 123 116 85 0 106 3
111 15 10 27 16 8 9 -30z m382 -2 c72 -8 82 -20 82 -102 l0 -68 -62 0 c-44 0
-78 -6 -112 -21 -50 -23 -155 -30 -226 -16 l-32 7 6 66 c4 36 7 86 8 110 l1
43 141 -6 c78 -4 165 -9 194 -13z m72 -208 c0 -12 -16 -15 -80 -15 -44 0 -80
4 -80 9 0 13 26 19 98 20 49 1 62 -2 62 -14z"/>
<path d="M1490 2490 c0 -5 11 -12 24 -16 15 -3 27 -15 29 -27 4 -20 4 -20 6 2
1 24 -23 50 -46 51 -7 0 -13 -4 -13 -10z"/>
<path d="M1806 2672 c-7 -11 53 -22 109 -20 36 1 34 2 -15 8 -30 4 -62 10 -71
14 -10 4 -20 3 -23 -2z"/>
<path d="M1983 2657 c0 -8 13 -15 31 -15 17 -1 85 -8 151 -16 66 -7 122 -12
123 -11 14 13 -57 26 -155 30 -64 3 -121 9 -127 15 -14 14 -23 13 -23 -3z"/>
<path d="M671 2639 c-15 -6 -21 -15 -17 -24 4 -10 -1 -15 -16 -15 -27 0 -21
-5 14 -14 22 -5 26 -3 22 9 -4 8 -1 15 5 15 6 0 11 -4 11 -9 0 -6 47 -8 116
-5 70 2 113 0 109 -5 -8 -14 35 -25 48 -12 8 8 6 11 -6 11 -9 0 -17 4 -17 10
0 5 -10 14 -21 21 -17 9 -23 8 -30 -2 -7 -12 -9 -12 -9 0 0 9 -7 11 -22 8 -14
-4 -29 0 -40 10 -10 9 -18 11 -18 5 0 -6 6 -12 13 -15 6 -2 8 -8 4 -13 -5 -5
-17 2 -28 16 -20 24 -20 24 -9 2 6 -13 9 -26 6 -29 -9 -9 -26 8 -26 27 0 13
-5 17 -21 13 -13 -4 -16 -8 -9 -13 8 -5 7 -10 -3 -19 -11 -9 -17 -8 -27 3 -6
9 -9 20 -5 26 7 12 7 12 -24 -1z"/>
<path d="M2765 2620 c-3 -5 0 -19 8 -30 14 -19 15 -20 21 -3 4 10 2 19 -3 21
-6 2 -9 8 -5 13 3 5 1 9 -5 9 -5 0 -13 -4 -16 -10z"/>
<path d="M2904 2619 c-5 -9 -14 -18 -21 -20 -8 -3 -7 -8 3 -17 11 -10 14 -10
14 2 0 9 8 14 20 13 11 -1 20 -4 20 -7 0 -3 14 -7 30 -8 31 -2 41 12 15 22 -8
3 -15 1 -15 -5 0 -6 -5 -7 -10 -4 -6 4 -7 11 -4 17 5 7 0 9 -14 6 -12 -3 -23
-1 -25 5 -2 7 -7 5 -13 -4z"/>
<path d="M266 2597 c10 -14 25 -27 32 -27 6 0 12 -4 12 -10 0 -5 5 -10 10 -10
14 0 12 27 -2 33 -10 4 -10 8 1 15 11 8 9 10 -10 9 -13 0 -33 4 -43 8 -19 8
-19 8 0 -18z"/>
<path d="M1315 2591 c-3 -11 -9 -20 -13 -20 -20 3 -36 -2 -27 -9 6 -4 16 -19
24 -34 16 -30 32 -29 24 2 -3 11 -9 17 -14 14 -14 -8 -10 6 5 22 19 18 26 18
26 -2 0 -11 8 -14 25 -12 14 2 24 8 23 13 -2 6 -9 9 -16 8 -9 -1 -12 6 -9 18
3 10 1 19 -4 19 -5 0 -9 -5 -9 -11 0 -8 -4 -8 -14 0 -11 10 -16 8 -21 -8z"/>
<path d="M2718 2602 c-18 -3 -25 -21 -10 -23 4 0 15 -2 25 -4 18 -3 21 3 9 20
-4 6 -15 9 -24 7z"/>
<path d="M183 2580 c-25 -11 -45 -15 -48 -9 -10 14 -25 11 -19 -5 3 -8 -2 -16
-13 -19 -17 -4 -17 -5 0 -6 10 0 42 10 70 23 29 12 59 26 67 29 13 5 13 5 0 6
-8 0 -34 -9 -57 -19z"/>
<path d="M367 2567 c-3 -8 -8 -84 -12 -170 -7 -137 -6 -157 8 -157 8 0 18 7
21 16 9 22 8 24 -10 24 -13 0 -14 11 -10 68 18 225 19 259 3 219z"/>
<path d="M1210 2565 c-8 -9 -9 -15 -2 -15 6 0 14 5 17 10 10 16 22 12 28 -9 3
-12 -1 -22 -9 -25 -8 -3 -14 -11 -13 -18 0 -10 2 -10 6 0 4 10 8 9 19 -5 18
-24 17 -34 -1 -27 -11 5 -15 -1 -14 -22 0 -16 3 -23 6 -16 2 6 11 12 18 12 17
0 25 23 14 41 -5 8 -6 22 -3 31 5 18 -23 58 -42 58 -6 0 -17 -7 -24 -15z"/>
<path d="M620 2555 c0 -6 -5 -16 -12 -23 -9 -9 -16 -8 -29 4 -11 10 -26 13
-43 8 -22 -5 -24 -8 -12 -18 18 -13 31 -173 16 -196 -9 -14 -14 24 -12 100 0
24 0 24 -10 4 -7 -15 -5 -47 4 -105 l14 -84 17 48 c11 33 14 64 10 94 -5 35
-3 44 6 39 7 -5 10 -14 7 -22 -3 -8 -1 -14 5 -14 7 0 9 10 5 25 -5 18 -2 27 9
31 8 4 15 12 15 20 0 7 6 17 13 21 6 4 12 14 13 21 1 6 2 19 3 27 1 17 27 20
37 4 3 -6 2 -14 -4 -18 -5 -3 -12 -50 -14 -104 -2 -78 0 -96 10 -92 8 3 16 5
18 5 2 0 4 54 4 120 l0 121 -35 -3 c-19 -1 -35 -7 -35 -13z"/>
<path d="M2607 2563 c-22 -6 -17 -27 6 -31 12 -2 17 3 17 17 0 12 -1 20 -2 20
-2 -1 -11 -3 -21 -6z"/>
<path d="M723 2543 c-9 -3 -13 -29 -13 -79 0 -67 2 -74 20 -74 12 0 21 7 21
18 1 9 3 27 4 40 1 12 0 20 -4 16 -6 -6 -7 -11 -10 -39 0 -8 -6 -15 -12 -15
-6 0 -9 16 -7 38 2 26 8 37 19 36 10 -1 16 9 17 32 3 34 -5 40 -35 27z"/>
<path d="M140 2524 c0 -14 42 -27 50 -15 6 9 97 12 118 3 11 -4 12 -21 8 -76
-3 -46 -2 -66 4 -56 5 8 10 45 10 82 l0 67 -95 3 c-66 2 -95 0 -95 -8z"/>
<path d="M1074 2528 c-3 -4 0 -8 6 -8 6 0 9 -4 5 -9 -8 -13 43 -51 61 -44 8 3
14 0 14 -6 0 -6 4 -11 9 -11 18 0 -2 39 -23 46 -29 9 -39 28 -18 36 11 4 5 6
-16 5 -19 -1 -36 -5 -38 -9z"/>
<path d="M15 2522 c-5 -4 -11 -12 -12 -19 -2 -9 7 -8 36 2 22 7 48 11 59 8 11
-2 23 0 26 6 8 13 -92 16 -109 3z"/>
<path d="M394 2506 c-3 -14 -4 -28 -1 -33 2 -4 -1 -47 -8 -95 -8 -63 -9 -88
-1 -88 6 0 12 15 13 33 1 17 4 55 8 82 10 79 11 116 3 121 -4 3 -10 -6 -14
-20z"/>
<path d="M2713 2519 c-13 -5 -23 -15 -23 -24 0 -20 6 -19 31 6 25 25 22 30 -8
18z"/>
<path d="M1189 2478 c-1 -2 -2 -14 -4 -28 -1 -14 -6 -38 -10 -54 l-8 -30 24
23 c19 17 31 21 57 16 18 -3 32 -2 32 4 0 17 -16 21 -49 11 -28 -8 -32 -7 -29
8 3 9 10 16 16 15 7 -2 12 6 12 17 0 13 -7 20 -20 20 -11 0 -20 -1 -21 -2z"/>
<path d="M2643 2454 c-30 -15 -33 -21 -33 -60 0 -45 5 -50 29 -35 9 6 10 11 2
15 -6 4 -11 14 -11 22 0 11 4 12 19 4 12 -6 22 -6 26 -1 3 5 -5 11 -17 13 -30
4 -30 32 0 36 12 2 22 8 22 13 0 11 1 12 -37 -7z"/>
<path d="M2945 2457 c10 -8 15 -19 11 -25 -5 -8 0 -12 13 -12 12 0 21 2 21 5
0 10 -40 45 -52 45 -6 0 -4 -6 7 -13z"/>
<path d="M2816 2451 c-4 -6 -2 -11 4 -11 6 0 8 -4 5 -10 -4 -6 14 -10 46 -10
29 0 49 3 45 7 -4 4 -22 6 -41 5 -23 -2 -37 3 -43 14 -6 11 -11 13 -16 5z"/>
<path d="M798 2439 c-12 -6 -18 -21 -17 -42 l1 -32 11 28 c16 41 28 33 26 -19
-3 -44 -19 -75 -19 -35 0 12 -7 21 -15 21 -8 0 -15 -9 -15 -20 0 -11 5 -20 11
-20 6 0 9 -9 6 -20 -3 -11 -2 -20 2 -20 4 0 7 -9 7 -20 0 -11 -4 -20 -8 -20
-4 0 -8 -10 -8 -22 0 -21 1 -21 16 -6 9 9 18 30 20 47 2 18 8 40 13 50 6 10 8
35 4 55 -5 31 -3 35 11 30 9 -3 16 -1 16 5 0 6 -5 11 -11 11 -6 0 -8 9 -4 20
7 23 -17 27 -47 9z"/>
<path d="M2496 2423 c9 -35 9 -35 30 -31 17 3 17 4 0 21 -23 23 -7 21 24 -3
33 -26 40 -25 40 4 0 18 -7 25 -31 30 -61 12 -70 9 -63 -21z"/>
<path d="M80 2416 c0 -2 16 -13 35 -25 19 -11 35 -16 35 -11 0 6 0 13 0 18 0
4 -8 7 -19 8 -11 1 -26 4 -35 7 -9 4 -16 5 -16 3z"/>
<path d="M486 2371 c4 -39 1 -57 -8 -62 -9 -6 -6 -9 10 -9 24 0 24 -4 2 85 -9
38 -9 37 -4 -14z"/>
<path d="M1290 2414 c0 -3 9 -18 20 -34 21 -29 56 -45 66 -29 3 5 2 9 -3 9 -4
0 -23 14 -42 30 -35 31 -41 34 -41 24z"/>
<path d="M1050 2390 c-10 -19 -8 -20 32 -19 24 1 50 0 58 -2 8 -2 15 3 15 11
0 9 -9 15 -22 15 -11 0 -25 3 -29 8 -14 14 -43 7 -54 -13z"/>
<path d="M2386 2383 c3 -16 9 -59 14 -98 8 -68 8 -68 5 25 -5 112 -3 100 -15
100 -5 0 -7 -12 -4 -27z"/>
<path d="M2796 2386 c4 -12 0 -16 -15 -16 -25 0 -28 -15 -3 -17 9 -1 36 -6 60
-11 23 -5 42 -5 42 -1 0 5 -8 10 -17 10 -10 1 -25 2 -33 3 -8 0 -15 10 -15 20
0 11 -6 21 -13 23 -7 3 -10 -1 -6 -11z"/>
<path d="M885 2356 c-16 -23 -23 -121 -11 -133 3 -4 6 8 6 25 0 16 6 33 13 35
10 4 10 6 0 6 -20 1 -15 45 7 69 12 12 16 22 11 22 -6 0 -18 -11 -26 -24z"/>
<path d="M3 2357 c-12 -19 32 -25 95 -13 29 6 33 4 28 -12 -5 -14 0 -18 21
-20 33 -3 33 -3 39 -46 3 -25 0 -36 -8 -36 -10 0 -9 -3 1 -9 9 -6 12 -21 9
-44 -3 -25 0 -33 9 -30 10 4 13 -27 13 -146 0 -126 2 -151 15 -151 12 0 14 17
10 103 -2 56 -5 146 -7 200 -1 63 -6 96 -13 93 -6 -2 -10 13 -10 39 l0 43 42
0 c40 1 67 -20 40 -32 -7 -2 -4 -5 5 -5 15 -1 17 -7 12 -36 -3 -22 -1 -35 5
-35 7 0 11 25 11 63 l0 62 -82 -6 c-85 -7 -103 -4 -93 12 7 11 -2 12 -78 13
-33 1 -61 -3 -64 -7z"/>
<path d="M712 2343 c4 -39 28 -42 28 -4 0 21 -5 31 -16 31 -11 0 -14 -8 -12
-27z"/>
<path d="M2530 2360 c20 -13 60 -13 60 0 0 6 -17 10 -37 10 -28 0 -34 -3 -23
-10z"/>
<path d="M2705 2360 c-3 -5 -12 -7 -20 -4 -8 3 -23 -1 -35 -9 -19 -13 -19 -14
10 -15 16 0 32 4 35 9 4 5 18 9 33 9 21 0 24 2 12 10 -19 12 -27 12 -35 0z"/>
<path d="M1115 2350 c3 -6 12 -10 20 -10 9 0 11 -7 7 -22 -4 -16 -2 -19 8 -13
9 5 11 4 6 -4 -6 -9 -11 -9 -21 -1 -10 8 -19 8 -35 0 -11 -6 -25 -8 -30 -5 -6
3 -20 -1 -32 -9 -22 -16 -22 -16 17 -16 91 0 175 13 175 26 0 16 -26 19 -35 4
-3 -5 -11 -10 -16 -10 -6 0 -7 4 -4 10 3 5 -2 18 -12 28 -20 21 -58 38 -48 22z"/>
<path d="M2555 2321 c-6 -20 24 -61 46 -61 5 0 -2 11 -17 25 -15 14 -23 25
-17 25 5 0 10 7 10 15 0 21 -15 19 -22 -4z"/>
<path d="M2975 2248 l6 -98 -33 0 -33 0 0 80 c1 44 -3 80 -7 80 -4 0 -8 -37
-8 -81 l0 -81 -25 5 c-18 3 -29 -1 -36 -14 -6 -13 -6 -19 1 -19 5 0 10 8 10
18 0 11 3 13 8 6 4 -7 16 -13 26 -15 12 -3 20 -13 21 -26 1 -19 -4 -23 -29
-24 -28 -2 -28 -2 -6 -6 27 -5 40 -19 40 -44 0 -12 -7 -15 -27 -11 -20 3 -25
1 -18 -6 6 -6 22 -13 35 -14 22 -3 25 1 22 24 -2 19 2 28 15 31 16 4 17 5 1 6
-14 1 -18 10 -18 36 0 31 3 35 25 35 21 0 25 -5 26 -32 2 -80 9 -162 14 -166
5 -6 10 148 8 296 0 57 -5 98 -12 105 -9 9 -11 -11 -6 -85z"/>
<path d="M604 2315 c-3 -8 -3 -19 1 -25 3 -6 -3 -10 -14 -10 -16 0 -21 -7 -22
-27 0 -16 -2 -37 -4 -48 -3 -17 -23 -262 -28 -352 -1 -18 1 -29 6 -24 4 4 12
61 18 127 19 226 18 224 40 224 17 0 19 7 17 75 -3 77 -5 86 -14 60z m6 -91
c0 -24 -4 -34 -12 -31 -18 5 -19 67 -1 67 8 0 13 -12 13 -36z"/>
<path d="M654 2305 c-18 -14 -18 -14 9 -15 17 0 27 5 27 15 0 19 -11 19 -36 0z"/>
<path d="M0 2298 c0 -4 3 -9 8 -9 4 -1 16 -3 27 -5 11 -2 47 -6 80 -9 49 -4
55 -3 35 6 -14 6 -40 11 -57 11 -18 0 -33 4 -33 9 0 5 -14 8 -30 7 -17 -1 -30
-6 -30 -10z"/>
<path d="M450 2304 c0 -6 5 -15 12 -22 17 -17 2 -28 -17 -12 -12 10 -15 10
-15 -4 0 -9 10 -21 23 -26 21 -8 21 -9 1 -9 -11 -1 -25 4 -32 11 -9 9 -12 7
-12 -9 0 -16 5 -20 20 -16 12 3 20 0 20 -6 0 -7 -6 -9 -12 -5 -10 5 -10 4 -2
-5 9 -10 16 -10 33 0 11 8 23 20 26 27 2 7 0 10 -5 7 -6 -3 -10 3 -10 15 0 17
4 20 20 15 15 -5 18 -3 14 9 -3 8 -12 12 -21 9 -9 -4 -22 1 -29 12 -8 10 -14
14 -14 9z"/>
<path d="M2858 2282 c-21 -35 -25 -116 -6 -110 12 4 31 99 26 126 -2 8 -11 0
-20 -16z"/>
<path d="M683 2279 c-19 -7 -20 -11 -10 -33 l12 -26 3 25 c4 27 22 35 22 10 0
-9 6 -12 15 -9 19 8 20 24 1 24 -8 0 -16 4 -18 9 -2 5 -13 5 -25 0z"/>
<path d="M826 2229 c-3 -34 -6 -77 -6 -96 0 -19 -4 -32 -9 -29 -11 7 -21 -31
-31 -114 -12 -105 -34 -214 -44 -222 -5 -3 -28 -5 -50 -3 -28 3 -36 1 -26 -5
8 -5 29 -10 47 -10 30 0 33 -3 48 -56 13 -47 14 -58 3 -65 -10 -7 -9 -9 4 -9
12 0 19 -14 26 -52 5 -29 10 -43 11 -31 0 12 -10 67 -23 122 -14 60 -20 104
-14 107 5 3 7 11 5 17 -2 7 6 49 19 94 22 80 24 98 13 118 -3 6 -2 28 2 50 3
22 7 36 8 30 0 -5 7 -1 15 10 12 18 24 205 13 205 -2 0 -7 -28 -11 -61z"/>
<path d="M2240 2281 c22 -12 95 -22 84 -12 -5 5 -29 11 -54 14 -25 3 -38 2
-30 -2z"/>
<path d="M944 2255 c3 -19 -2 -34 -12 -42 -15 -11 -15 -12 -1 -8 9 4 52 12 95
20 l79 13 -74 -1 c-71 -2 -75 -1 -83 23 -7 23 -7 23 -4 -5z"/>
<path d="M1821 2251 c9 -6 63 -13 120 -16 69 -3 97 -2 82 4 -31 14 -222 25
-202 12z"/>
<path d="M1170 2228 c0 -4 -12 -8 -27 -8 -22 0 -25 -2 -13 -10 12 -8 11 -10
-7 -10 -13 0 -23 -4 -23 -10 0 -5 -9 -10 -20 -10 -11 0 -20 4 -20 9 0 5 -10
11 -22 14 -23 6 -23 6 -3 -10 20 -16 20 -16 0 -8 -36 14 -85 18 -85 6 0 -6 12
-10 27 -9 14 2 28 -2 30 -9 4 -12 82 -6 98 8 5 5 23 9 40 9 23 0 26 3 15 10
-11 7 -2 10 33 10 55 0 64 16 12 22 -19 2 -35 0 -35 -4z"/>
<path d="M662 2158 c-2 -57 1 -78 11 -78 8 -1 7 -4 -3 -13 -12 -9 -14 -26 -9
-77 3 -36 6 -57 7 -48 1 12 7 15 19 11 13 -5 15 -2 10 18 -4 13 -7 34 -7 47 0
16 -4 21 -12 16 -9 -5 -8 -2 1 9 12 15 12 21 0 44 -11 21 -11 27 -1 30 7 3 12
20 11 41 0 29 -2 33 -9 17 -6 -16 -9 -12 -12 20 -3 25 -5 11 -6 -37z"/>
<path d="M448 2170 c-4 -8 -6 -35 -5 -60 1 -30 -3 -49 -13 -57 -9 -7 -10 -12
-3 -13 12 0 9 -141 -4 -164 -4 -8 -3 -8 6 0 16 15 31 123 20 150 -4 12 -3 26
2 31 6 6 9 37 7 69 -2 32 -6 52 -10 44z"/>
<path d="M1632 2145 c-15 -34 -15 -46 1 -39 7 2 14 18 15 34 3 37 -1 38 -16 5z"/>
<path d="M607 2153 c-4 -3 -2 -12 5 -20 8 -10 8 -20 -1 -39 -6 -15 -7 -23 -1
-19 5 3 10 1 10 -4 0 -6 5 -11 10 -11 6 0 10 11 10 24 0 28 -24 78 -33 69z"/>
<path d="M2776 2121 c-3 -21 -13 -44 -21 -51 -21 -17 -19 -42 4 -62 16 -14 20
-14 25 -2 3 9 -1 14 -14 14 -11 0 -20 7 -20 15 0 10 10 15 31 15 31 0 69 30
69 54 0 6 -5 4 -10 -4 -5 -8 -10 -11 -10 -6 0 5 -7 3 -15 -4 -13 -11 -15 -7
-15 29 0 52 -15 54 -24 2z"/>
<path d="M1090 2140 c-20 -7 -16 -8 18 -6 23 2 45 6 49 10 9 8 -37 6 -67 -4z"/>
<path d="M336 2104 c-5 -12 -1 -23 11 -32 15 -11 19 -10 24 5 3 10 1 20 -5 22
-6 2 -14 8 -17 13 -3 5 -9 2 -13 -8z"/>
<path d="M1539 2036 c-24 -41 -33 -46 -24 -13 5 20 5 20 -6 3 -23 -38 -50
-130 -44 -153 8 -33 28 -17 23 18 -3 16 -2 27 1 24 2 -3 11 14 19 37 22 66 48
97 75 91 23 -6 23 -6 -5 16 -15 11 -20 9 -39 -23z"/>
<path d="M1704 2051 c4 -6 29 -11 55 -11 26 0 52 -5 59 -12 9 -9 12 -9 12 3 0
9 -6 16 -12 16 -7 0 -37 4 -67 8 -40 6 -52 5 -47 -4z"/>
<path d="M2821 2038 c-5 -13 -6 -29 -4 -35 3 -7 0 -13 -6 -13 -6 0 -11 -5 -11
-11 0 -5 5 -7 10 -4 6 4 10 -6 10 -22 0 -15 3 -39 7 -52 6 -23 8 -23 81 -17
57 5 77 4 84 -6 7 -9 8 -7 6 7 -2 11 -10 20 -18 21 -44 3 -46 4 -30 14 11 7 4
10 -27 10 -24 0 -43 -5 -43 -11 0 -6 9 -8 21 -4 15 5 19 4 15 -4 -8 -13 -45
-14 -65 -2 -10 7 -12 26 -8 80 5 70 -5 93 -22 49z"/>
<path d="M330 1970 c0 -45 -4 -70 -11 -70 -8 0 -8 -5 1 -15 24 -28 28 -15 29
88 0 15 5 36 11 47 9 17 7 20 -10 20 -18 0 -20 -6 -20 -70z"/>
<path d="M2694 1997 c-6 -10 -17 -20 -25 -21 -8 -2 -21 -6 -30 -10 -9 -4 -28
-8 -43 -10 -15 -2 -36 -10 -46 -19 -10 -8 -21 -13 -24 -10 -3 3 -8 -2 -12 -11
-3 -9 -15 -16 -25 -16 -11 0 -19 -7 -19 -16 0 -21 34 -10 80 26 19 15 49 30
67 33 26 5 34 2 49 -21 62 -92 83 -176 64 -259 -7 -32 -15 -75 -17 -95 -5 -35
-3 -38 21 -38 16 0 26 6 26 15 0 8 4 15 10 15 5 0 7 7 4 15 -3 8 -2 20 2 27 5
7 9 33 10 58 1 35 0 39 -6 20 -7 -23 -8 -23 -9 -3 -1 12 5 28 13 35 15 16 27
88 14 88 -5 0 -11 -7 -14 -15 -9 -24 -19 -18 -22 13 -1 15 -11 33 -22 41 -11
7 -20 23 -20 35 0 12 -7 32 -16 45 -14 19 -14 27 -4 46 15 28 9 59 -6 32z"/>
<path d="M1926 1985 c-11 -8 -18 -16 -15 -19 14 -12 51 -26 71 -26 17 0 19 -3
9 -9 -10 -6 -5 -12 19 -24 27 -14 31 -14 26 -2 -4 12 0 12 22 -2 l27 -17 -25
27 c-13 16 -30 25 -38 22 -12 -4 -12 -3 -3 9 11 13 7 17 -21 25 -18 5 -27 10
-20 10 19 1 4 21 -16 21 -9 0 -26 -7 -36 -15z"/>
<path d="M1005 1958 c-11 -7 -31 -22 -45 -35 -19 -18 -21 -23 -8 -23 9 0 18 7
22 15 3 8 12 15 21 15 8 0 15 5 15 10 0 6 10 15 23 20 12 5 15 9 7 9 -8 0 -24
-5 -35 -11z"/>
<path d="M1646 1961 c-8 -13 19 -21 67 -20 l42 1 -43 9 c-23 4 -46 11 -51 14
-5 3 -12 1 -15 -4z"/>
<path d="M1189 1934 c-9 -11 -7 -14 14 -14 32 0 44 16 17 23 -10 3 -24 -1 -31
-9z"/>
<path d="M80 1931 c0 -7 -6 -11 -15 -7 -9 3 -15 0 -15 -8 0 -13 27 -15 47 -3
6 4 14 2 16 -3 4 -7 5 -6 3 1 -1 6 -5 10 -10 9 -5 -1 -13 4 -17 12 -7 11 -9
11 -9 -1z"/>
<path d="M1600 1893 c0 -23 -5 -33 -15 -33 -24 0 -18 -37 8 -44 18 -5 20 -8 7
-16 -13 -9 -12 -12 4 -25 31 -24 36 -18 21 26 -19 53 -19 63 1 55 14 -5 16 -1
11 24 -6 25 -3 30 13 30 11 0 20 4 20 10 0 5 -16 9 -35 7 -32 -2 -35 -5 -35
-34z"/>
<path d="M1247 1902 c-10 -10 -17 -22 -17 -26 0 -7 -10 -20 -39 -52 -7 -8 -12
-17 -9 -19 6 -7 23 9 48 45 13 19 33 43 44 52 17 14 18 18 5 18 -9 0 -23 -8
-32 -18z"/>
<path d="M1160 1886 c-7 -14 -17 -26 -22 -26 -11 0 -10 -38 2 -45 6 -3 10 2
10 12 0 10 7 29 16 41 8 12 14 27 12 33 -2 6 -10 -1 -18 -15z"/>
<path d="M1353 1898 c2 -7 -2 -21 -10 -30 -12 -13 -12 -16 -1 -14 25 3 36 16
31 36 -3 11 -10 20 -15 20 -5 0 -8 -6 -5 -12z"/>
<path d="M1511 1889 c2 -13 0 -30 -5 -37 -4 -7 -5 -16 -2 -19 3 -4 6 0 6 8 0
11 2 12 9 1 6 -10 10 -7 15 12 4 18 1 32 -10 43 -15 15 -16 14 -13 -8z"/>
<path d="M2580 1901 c0 -4 5 -12 10 -17 8 -8 8 -19 0 -38 -11 -31 -14 -83 -3
-72 4 4 8 15 8 24 5 71 3 68 23 49 25 -26 20 -99 -13 -181 -22 -56 -25 -70
-14 -77 17 -10 54 13 54 33 0 9 5 22 12 29 15 19 37 160 26 168 -15 10 -51 65
-49 76 0 6 -11 10 -26 11 -16 1 -28 -2 -28 -5z"/>
<path d="M1302 1875 c-7 -14 -12 -29 -12 -33 1 -10 40 38 40 49 0 18 -17 8
-28 -16z"/>
<path d="M1697 1894 c-13 -13 -7 -24 13 -24 11 0 29 -6 40 -12 17 -11 26 -10
50 4 21 12 27 13 24 3 -4 -10 0 -12 15 -8 17 4 20 1 18 -22 -1 -16 4 -30 12
-33 9 -3 11 1 6 17 -3 11 -3 21 0 21 10 0 35 -28 35 -39 0 -5 4 -12 9 -16 13
-7 43 24 35 37 -4 6 -9 5 -15 -3 -6 -10 -11 -6 -19 12 -13 29 -64 49 -135 54
-27 2 -57 6 -66 9 -8 4 -18 3 -22 0z"/>
<path d="M581 1873 c-1 -18 4 -22 24 -21 29 3 34 18 6 18 -11 0 -22 6 -24 13
-3 6 -6 2 -6 -10z"/>
<path d="M2343 1876 c4 -10 1 -19 -8 -22 -20 -8 -19 -34 0 -34 8 0 15 9 15 20
0 22 15 27 23 8 3 -8 6 -6 6 4 1 10 -9 22 -21 29 -18 10 -20 9 -15 -5z"/>
<path d="M1647 1843 c-14 -14 -6 -19 23 -15 17 2 30 8 30 13 0 10 -43 12 -53
2z"/>
<path d="M2030 1843 c1 -13 60 -78 60 -66 0 7 -5 15 -11 18 -5 4 -14 18 -19
31 -9 22 -31 34 -30 17z"/>
<path d="M2943 1843 c-7 -2 -13 -12 -13 -21 1 -15 3 -14 15 2 13 17 15 18 15
3 0 -9 3 -17 8 -17 12 0 37 19 32 23 -10 9 -45 15 -57 10z"/>
<path d="M1359 1824 c-9 -11 -9 -18 -1 -26 14 -14 42 -3 42 16 0 20 -27 27
-41 10z"/>
<path d="M1445 1804 c-3 -20 -4 -38 -2 -40 3 -3 8 12 12 32 5 28 9 34 16 23 7
-11 9 -11 9 4 0 33 -28 18 -35 -19z"/>
<path d="M2371 1805 c-1 -17 -5 -35 -10 -40 -5 -6 -11 -55 -14 -110 -3 -55 -2
-91 2 -81 7 19 8 19 13 -2 9 -34 -2 -62 -24 -62 -14 0 -18 5 -15 14 4 10 1 13
-9 9 -16 -6 -19 -23 -4 -23 6 0 10 -7 10 -15 0 -8 7 -15 15 -15 21 0 30 -27
15 -45 -10 -12 -7 -15 12 -20 65 -14 105 -24 127 -31 20 -6 23 -4 18 10 -4 10
-1 24 8 32 22 22 19 40 -3 21 -12 -11 -36 -17 -69 -17 -44 0 -51 3 -62 26 -9
20 -9 30 0 40 6 7 13 46 15 86 2 40 6 94 10 121 4 31 2 47 -5 47 -6 0 -11 10
-12 23 0 12 -4 31 -9 42 -7 17 -9 16 -9 -10z"/>
<path d="M72 1810 c2 -10 -3 -14 -14 -12 -10 2 -18 -2 -18 -7 0 -6 -7 -8 -16
-4 -12 4 -15 2 -12 -8 6 -17 48 -14 68 6 11 12 12 17 1 27 -10 11 -12 10 -9
-2z"/>
<path d="M217 1729 c1 -50 4 -93 6 -95 2 -3 10 2 17 11 7 8 9 15 4 15 -5 0 -8
36 -8 80 1 54 -2 80 -10 80 -7 0 -10 -29 -9 -91z"/>
<path d="M1090 1804 c-22 -12 -22 -14 -6 -20 18 -7 41 8 35 23 -2 5 -15 3 -29
-3z"/>
<path d="M1671 1800 c-24 -12 -30 -19 -21 -25 7 -4 16 -2 20 5 4 7 13 9 19 6
6 -4 11 -2 11 3 0 6 5 11 11 11 5 0 7 -4 4 -10 -3 -5 1 -10 9 -10 10 0 16 -9
16 -24 0 -14 4 -27 9 -31 15 -8 25 15 12 28 -16 16 -14 37 5 37 8 0 12 5 8 11
-4 7 -10 7 -16 1 -7 -7 -17 -7 -32 2 -18 11 -27 10 -55 -4z"/>
<path d="M422 1777 c-8 -9 -11 -21 -7 -27 3 -5 2 -10 -4 -10 -5 0 -12 6 -14
13 -4 9 -6 9 -6 0 -1 -7 -8 -10 -16 -7 -8 4 -17 -1 -21 -9 -3 -8 -16 -18 -30
-21 -15 -4 -24 -14 -24 -26 0 -14 -6 -18 -20 -15 -11 2 -18 0 -15 -6 9 -14 33
-11 43 7 9 15 114 64 140 64 6 0 12 5 12 11 0 5 -4 8 -9 4 -5 -3 -11 5 -13 17
-3 19 -4 20 -16 5z"/>
<path d="M1485 1759 c-9 -42 -3 -43 16 -3 13 26 13 34 4 34 -8 0 -16 -14 -20
-31z"/>
<path d="M1812 1776 c-22 -12 -22 -12 7 -23 31 -11 41 -8 41 13 0 18 -23 23
-48 10z"/>
<path d="M2040 1782 c0 -9 22 -59 40 -93 6 -11 3 -22 -8 -33 -12 -12 -13 -16
-3 -16 8 0 20 8 28 18 10 12 16 14 19 5 7 -15 24 -17 24 -3 0 5 -11 12 -25 16
-20 5 -28 17 -41 60 -8 30 -20 54 -25 54 -5 0 -9 -4 -9 -8z"/>
<path d="M1790 1715 c-10 -12 -10 -15 2 -15 7 0 19 -14 26 -32 9 -24 15 -29
23 -21 16 16 2 50 -22 56 -12 3 -18 10 -14 16 9 16 -1 13 -15 -4z"/>
<path d="M1660 1695 c-11 -13 -8 -15 18 -15 17 0 33 -6 35 -12 4 -10 6 -10 6
0 1 7 -7 16 -16 19 -10 4 -21 10 -24 15 -3 5 -12 2 -19 -7z"/>
<path d="M1873 1655 c1 -25 5 -45 10 -45 4 0 7 -9 7 -19 0 -11 5 -23 12 -27 8
-5 9 0 6 14 -4 15 -2 22 8 22 8 0 14 -5 14 -12 0 -6 2 -9 5 -7 10 11 -8 47
-26 52 -14 4 -19 14 -19 36 0 17 -4 31 -10 31 -5 0 -8 -20 -7 -45z"/>
<path d="M2864 1688 c-5 -8 -2 -9 9 -5 11 4 17 1 17 -8 0 -8 -8 -16 -17 -17
-10 0 -23 -2 -30 -2 -6 -1 -15 -5 -20 -10 -11 -12 69 3 85 16 7 6 11 16 9 21
-5 15 -45 19 -53 5z"/>
<path d="M1634 1653 c1 -19 6 -33 14 -33 6 0 11 3 11 8 -3 19 2 33 11 27 6 -3
10 -3 10 2 0 4 -11 13 -23 19 -22 10 -23 8 -23 -23z"/>
<path d="M2440 1654 c-17 -10 -19 -13 -5 -9 11 4 43 11 70 15 l50 8 -45 0
c-25 1 -56 -6 -70 -14z"/>
<path d="M164 1626 c1 -29 3 -33 19 -25 9 6 17 16 17 24 0 8 -8 15 -17 15 -15
0 -16 2 -3 10 13 9 13 10 -1 10 -11 0 -15 -9 -15 -34z"/>
<path d="M1735 1638 c3 -8 -7 -21 -24 -31 -33 -19 -56 -22 -45 -6 4 7 1 10 -6
7 -18 -6 -22 -20 -10 -38 7 -12 12 -12 28 3 11 10 33 22 48 26 30 8 41 40 16
49 -7 2 -10 -2 -7 -10z"/>
<path d="M1780 1636 c0 -8 4 -17 9 -20 5 -3 7 -15 4 -26 -3 -11 0 -26 6 -34 8
-10 9 -16 1 -21 -15 -9 -12 -22 5 -22 8 0 15 4 15 8 0 4 9 5 20 2 11 -3 20 -1
20 5 0 5 -11 13 -25 16 -25 6 -31 30 -26 89 1 9 -4 17 -13 17 -9 0 -16 -6 -16
-14z"/>
<path d="M300 1625 c-21 -11 -21 -12 -4 -17 29 -8 55 4 40 18 -9 9 -18 8 -36
-1z"/>
<path d="M1834 1610 c3 -14 6 -31 6 -37 0 -7 5 -13 10 -13 15 0 12 34 -6 56
-15 18 -15 18 -10 -6z"/>
<path d="M2018 1609 c-25 -27 -23 -43 3 -28 19 9 20 8 15 -10 -3 -12 -9 -31
-12 -43 -4 -13 -12 -26 -18 -30 -6 -4 -7 -10 -3 -14 9 -9 47 38 42 53 -2 7 0
15 5 18 6 4 10 1 10 -5 0 -6 4 -9 9 -6 10 7 -12 79 -25 82 -5 1 -17 -6 -26
-17z"/>
<path d="M2176 1592 c-12 -12 -16 -13 -16 -3 0 11 -3 11 -15 1 -8 -7 -12 -16
-9 -21 3 -5 1 -9 -4 -9 -5 0 -12 9 -15 21 -3 12 -10 18 -16 15 -15 -10 10 -46
31 -46 10 0 18 4 18 10 0 5 18 14 40 20 42 11 53 25 21 27 -10 1 -26 -6 -35
-15z"/>
<path d="M110 1566 c0 -9 -7 -12 -20 -9 -14 4 -20 0 -20 -11 0 -9 -7 -16 -15
-16 -8 0 -15 -4 -15 -9 0 -5 9 -7 20 -4 11 3 20 12 20 20 0 8 6 13 13 10 15
-5 47 10 47 23 0 6 -7 10 -15 10 -8 0 -15 -6 -15 -14z"/>
<path d="M277 1566 c-4 -9 -15 -12 -34 -8 -43 8 -20 -9 28 -19 23 -6 55 -19
71 -30 23 -17 37 -19 81 -14 42 5 58 2 85 -14 58 -37 30 -86 -34 -60 l-29 12
35 7 c19 4 27 8 17 9 -10 0 -15 6 -12 11 7 11 -9 13 -42 4 -33 -9 -29 -19 23
-59 40 -30 54 -35 98 -34 48 1 49 1 17 9 -19 5 -40 6 -48 3 -9 -3 -11 0 -7 10
3 9 12 18 20 21 10 4 11 11 5 30 -6 13 -7 27 -3 32 4 4 2 4 -4 1 -7 -4 -14 1
-17 12 -5 20 -53 34 -104 31 -20 -1 -33 3 -33 10 0 9 -3 10 -14 1 -11 -9 -19
-5 -37 19 -25 32 -53 39 -62 16z"/>
<path d="M848 1568 c-32 -11 -37 -28 -9 -28 17 0 49 26 40 34 -2 2 -16 -1 -31
-6z"/>
<path d="M143 1539 c-29 -17 -53 -35 -53 -40 0 -11 17 -12 22 -1 6 14 78 52
78 41 0 -6 5 -7 10 -4 12 7 14 35 3 35 -5 0 -32 -14 -60 -31z"/>
<path d="M1012 1517 c-7 -22 -10 -42 -7 -45 3 -3 5 1 5 9 0 8 5 21 10 29 9 13
11 13 20 0 8 -13 10 -12 10 3 0 10 -6 24 -13 31 -11 11 -15 6 -25 -27z"/>
<path d="M1927 1553 c-11 -11 -8 -34 7 -48 12 -12 15 -11 19 6 9 34 -8 61 -26
42z"/>
<path d="M2804 1532 c2 -8 12 -23 24 -32 12 -10 18 -20 15 -24 -4 -3 -2 -6 4
-6 24 0 21 28 -3 34 -13 4 -24 11 -24 17 0 6 7 8 16 5 8 -3 13 -2 10 3 -3 5
-14 11 -25 14 -13 3 -18 0 -17 -11z"/>
<path d="M2588 1529 c-9 -6 -4 -9 14 -9 14 0 34 -3 44 -7 12 -4 15 -2 12 8 -5
16 -50 21 -70 8z"/>
<path d="M2089 1517 c-22 -17 -30 -44 -14 -50 8 -4 18 6 25 24 15 34 11 42
-11 26z"/>
<path d="M1961 1498 c0 -13 4 -32 9 -43 7 -16 9 -13 9 17 1 20 -3 40 -9 43 -6
3 -10 -4 -9 -17z"/>
<path d="M70 1486 c0 -21 -4 -27 -16 -22 -8 3 -13 2 -10 -3 3 -5 -1 -14 -8
-20 -10 -8 -16 -9 -21 -1 -3 5 -1 10 6 10 7 0 10 3 6 6 -14 15 -24 -7 -14 -30
l12 -24 16 24 c8 13 18 22 21 19 10 -10 26 42 17 56 -6 10 -9 6 -9 -15z"/>
<path d="M166 1495 c-56 -20 -68 -36 -71 -96 -2 -30 -2 -45 1 -34 12 47 40 85
75 100 21 10 43 14 49 10 7 -4 16 -1 21 6 7 12 14 11 39 -3 16 -9 30 -13 30
-7 0 12 -62 39 -87 39 -10 -1 -36 -7 -57 -15z"/>
<path d="M1650 1475 c0 -8 9 -15 20 -15 11 0 20 7 20 15 0 8 -9 15 -20 15 -11
0 -20 -7 -20 -15z"/>
<path d="M1820 1470 c0 -13 7 -20 20 -20 13 0 20 7 20 20 0 13 -7 20 -20 20
-13 0 -20 -7 -20 -20z"/>
<path d="M312 1454 c-12 -13 -10 -15 21 -9 30 6 39 2 76 -33 53 -50 54 -37 1
17 -42 43 -75 52 -98 25z"/>
<path d="M1725 1459 c-9 -14 4 -79 15 -79 6 0 10 9 10 20 0 11 -5 20 -10 20
-6 0 -8 11 -4 25 6 26 0 33 -11 14z"/>
<path d="M1520 1440 c10 -6 11 -10 3 -10 -7 0 -13 -10 -13 -22 0 -26 14 -14
25 20 5 17 2 22 -12 22 -15 0 -16 -2 -3 -10z"/>
<path d="M2575 1441 c-3 -6 -1 -11 4 -11 21 0 11 -19 -11 -22 -17 -3 -12 -7
20 -14 l43 -9 -38 -20 c-21 -11 -41 -24 -45 -30 -5 -6 -8 -6 -8 2 0 7 -6 10
-14 7 -8 -3 -17 -1 -21 5 -13 21 -25 11 -15 -13 5 -13 6 -28 2 -32 -4 -5 3 0
16 10 12 11 25 16 30 12 4 -5 -9 -22 -28 -38 -19 -17 -29 -28 -22 -24 6 4 12
3 12 -3 0 -5 -6 -11 -12 -14 -10 -3 -10 -8 1 -18 9 -9 11 -9 7 -1 -4 6 -2 12
3 12 6 0 11 6 11 14 0 21 52 76 73 76 10 0 16 4 13 9 -18 28 119 42 177 18 51
-22 97 -66 97 -93 0 -14 4 -23 9 -20 5 4 11 0 14 -6 2 -7 4 2 5 20 0 17 -4 32
-9 32 -6 0 -8 4 -4 9 3 5 0 13 -6 17 -7 4 -8 9 -1 13 6 4 4 12 -6 21 -14 13
-15 12 -9 -3 3 -9 2 -17 -2 -17 -5 0 -11 7 -15 15 -3 9 -12 12 -22 8 -12 -4
-15 -3 -10 5 4 8 2 10 -7 6 -8 -3 -17 2 -21 11 -3 9 -10 13 -16 10 -16 -10
-12 6 8 29 15 19 15 19 0 7 -9 -7 -22 -10 -28 -6 -5 3 -10 2 -10 -3 0 -6 -7
-13 -16 -16 -8 -3 -12 -2 -9 4 3 6 -1 10 -9 10 -9 0 -16 5 -16 11 0 6 7 8 16
5 8 -3 12 -2 9 4 -10 17 -54 11 -72 -10 -16 -19 -17 -19 -27 2 -13 25 -31 33
-41 19z"/>
<path d="M266 1425 c-3 -8 -11 -14 -18 -13 -10 2 -13 -17 -14 -75 -1 -56 -5
-81 -15 -88 -11 -7 -11 -9 4 -9 9 0 17 4 17 9 0 4 10 6 23 4 12 -2 29 1 37 6
12 8 11 14 -9 35 -17 18 -22 32 -18 53 3 15 8 43 12 61 6 32 -8 45 -19 17z"/>
<path d="M2213 1431 l-33 -6 25 -12 c21 -9 27 -8 35 5 8 15 9 15 10 -1 0 -10
4 -16 10 -12 10 6 2 36 -9 34 -3 -1 -21 -4 -38 -8z"/>
<path d="M185 1420 c-11 -4 -22 -6 -25 -4 -3 1 -6 -5 -7 -15 -1 -13 5 -16 32
-13 21 3 32 9 31 18 -3 20 -9 22 -31 14z"/>
<path d="M1826 1394 c4 -16 7 -34 7 -41 0 -7 4 -13 7 -13 13 0 8 54 -7 68 -12
12 -13 11 -7 -14z"/>
<path d="M367 1356 c4 -35 1 -48 -16 -65 -11 -11 -21 -25 -21 -31 0 -16 -85
-60 -118 -60 -41 0 -63 10 -55 24 3 6 3 8 -2 4 -23 -21 -85 55 -85 104 0 15
-5 30 -11 34 -8 4 -9 -11 -3 -52 6 -51 12 -63 43 -91 33 -29 55 -41 104 -57
10 -3 17 -16 17 -33 l1 -28 13 32 c10 21 23 33 44 38 17 3 33 13 36 21 10 25
50 16 69 -15 9 -16 17 -36 17 -45 0 -9 4 -16 9 -16 13 0 22 -73 11 -84 -6 -6
-10 -16 -10 -24 0 -9 7 -6 19 9 l18 23 14 -22 c8 -12 17 -22 21 -22 16 0 8 31
-12 47 -11 10 -20 27 -20 40 0 22 -44 105 -81 152 -24 30 -24 44 0 36 15 -4
20 1 25 27 3 17 2 36 -4 42 -5 5 -10 18 -10 27 0 10 -4 20 -9 23 -5 3 -6 -14
-4 -38z"/>
<path d="M1376 1364 c-8 -32 -1 -44 9 -15 3 12 11 21 16 21 5 0 9 5 9 10 0 22
-28 8 -34 -16z"/>
<path d="M165 1361 c-11 -5 -23 -7 -27 -4 -5 2 -8 -1 -8 -6 0 -6 -11 -11 -24
-11 -22 0 -24 -3 -16 -30 9 -30 40 -82 40 -65 0 6 -7 19 -15 29 -17 22 -20 56
-6 56 5 0 17 3 27 7 12 4 15 3 10 -5 -4 -7 -2 -12 6 -12 7 0 2 -9 -12 -20
l-25 -21 30 13 c39 15 41 18 49 51 7 28 3 31 -29 18z"/>
<path d="M457 1363 c-4 -3 1 -15 10 -26 10 -10 17 -21 16 -23 -9 -13 -1 -16 8
-4 8 11 12 12 16 2 2 -6 9 -10 14 -6 16 10 22 -26 8 -58 -10 -24 -10 -33 -1
-36 7 -2 15 -21 18 -43 8 -45 20 -51 25 -11 7 46 -1 74 -18 68 -11 -5 -13 -2
-9 10 3 8 6 25 6 36 0 19 4 20 42 14 23 -4 44 -9 46 -11 3 -2 -5 -20 -16 -40
-17 -27 -18 -35 -7 -35 8 0 18 6 22 13 13 20 80 67 96 67 29 0 106 -52 151
-101 38 -42 46 -57 46 -90 0 -21 5 -39 10 -39 14 0 12 -27 -4 -58 -17 -34 -33
-70 -45 -104 -8 -20 -7 -26 2 -22 17 6 77 146 77 178 0 14 5 26 10 26 6 0 10
9 10 20 0 22 -15 27 -26 8 -5 -7 -12 3 -21 26 -7 21 -11 42 -8 46 3 4 -2 10
-10 14 -8 3 -15 10 -15 16 0 17 29 11 50 -10 10 -10 21 -16 24 -12 2 4 23 6
45 4 24 -2 38 -8 35 -14 -4 -6 2 -8 15 -3 16 5 21 2 21 -10 0 -13 5 -15 18 -9
23 10 123 6 138 -6 6 -6 20 -9 30 -9 11 1 35 1 54 0 29 -2 32 -4 15 -11 -17
-7 -15 -9 13 -9 17 -1 32 4 32 9 0 6 9 10 20 10 11 0 20 -7 20 -15 0 -18 23
-19 51 -2 18 10 23 9 26 -1 4 -9 8 -10 18 -2 9 7 15 8 19 1 4 -6 13 -8 21 -5
8 4 13 9 11 13 -5 8 43 12 72 5 13 -2 20 -9 17 -14 -3 -6 -1 -10 5 -10 6 0 10
7 8 16 -2 12 9 16 52 18 30 2 80 0 110 -4 30 -4 62 -4 70 0 9 5 49 11 89 13
57 4 73 2 78 -9 3 -8 11 -14 18 -14 7 0 15 -6 18 -14 6 -15 66 -24 200 -29 69
-3 90 -7 100 -21 11 -15 13 -9 13 38 0 30 -3 53 -6 51 -3 -2 -59 3 -125 11
-117 15 -379 20 -480 11 -27 -3 -142 -6 -255 -7 -173 -1 -231 3 -370 24 -177
27 -273 49 -317 72 -16 7 -38 14 -50 14 -12 0 -29 7 -37 16 -9 8 -16 12 -16 8
0 -5 -5 -3 -12 4 -15 15 -82 16 -73 2 8 -13 6 -13 -62 6 -32 9 -73 19 -90 21
-18 3 -30 9 -27 14 3 5 -7 14 -21 19 -31 12 -30 12 -38 3z m1866 -223 c26 0
47 -4 47 -10 0 -5 7 -7 15 -4 11 4 15 0 15 -16 0 -18 -4 -21 -22 -17 -13 3
-57 7 -98 8 -89 2 -100 6 -100 28 0 26 7 29 53 20 23 -4 63 -8 90 -9z m-153 2
c0 -5 -7 -17 -15 -28 -14 -18 -14 -18 -15 9 0 17 5 27 15 27 8 0 15 -4 15 -8z"/>
<path d="M2946 1338 c5 -8 0 -9 -17 -5 -22 6 -21 4 6 -17 30 -24 45 -25 45 -3
0 8 -3 8 -9 -2 -11 -17 -23 1 -15 23 3 9 1 16 -6 16 -6 0 -8 -5 -4 -12z"/>
<path d="M2616 1307 c-64 -36 -80 -66 -82 -155 -1 -42 2 -85 8 -95 5 -10 35
-34 66 -54 31 -20 58 -37 60 -38 1 -1 6 -22 11 -46 l9 -44 1 36 c1 42 9 50 75
74 26 10 53 27 59 37 7 10 15 18 20 18 4 0 5 -5 1 -12 -4 -7 -3 -8 4 -4 6 4 9
12 6 19 -2 7 2 29 10 49 32 75 -9 180 -84 218 -52 26 -115 26 -164 -3z m89 6
c-62 -13 -102 -35 -119 -66 l-17 -32 22 29 c51 64 157 71 212 13 15 -16 25
-32 23 -35 -3 -2 1 -11 9 -19 17 -16 19 -60 6 -96 -10 -27 -61 -82 -61 -67 0
6 -5 10 -11 10 -5 0 -7 -4 -4 -10 4 -6 -11 -11 -37 -12 -37 -1 -38 -2 -10 -5
39 -5 33 -23 -9 -23 -18 0 -29 5 -29 14 0 8 -13 17 -30 21 -35 8 -74 51 -90
101 -23 68 8 135 75 165 22 10 51 18 65 18 20 -1 21 -2 5 -6z"/>
<path d="M2620 1240 c0 -5 5 -10 10 -10 6 0 10 -7 10 -15 0 -9 -6 -12 -15 -9
-8 4 -15 1 -15 -5 0 -6 6 -11 13 -11 8 0 8 -3 2 -8 -14 -9 -18 -62 -5 -62 5 0
7 -6 4 -14 -3 -8 0 -17 6 -21 18 -11 20 -1 10 35 -13 47 4 64 54 55 20 -4 36
-11 36 -15 0 -9 71 -53 76 -47 2 1 0 16 -5 33 -6 23 -14 30 -39 34 -17 3 -41
13 -52 23 -11 9 -26 17 -34 17 -7 0 -19 7 -26 15 -14 17 -30 20 -30 5z"/>
<path d="M2730 1221 c13 -26 25 -32 44 -25 23 9 20 23 -4 17 -12 -3 -22 1 -26
11 -3 9 -10 16 -15 16 -6 0 -5 -8 1 -19z"/>
<path d="M503 1268 c-24 -27 -46 -68 -40 -74 5 -6 67 76 67 88 0 12 -5 10 -27
-14z"/>
<path d="M2095 1270 c-5 -8 53 -20 105 -20 20 0 30 4 25 9 -13 12 -124 21
-130 11z"/>
<path d="M1190 1247 c10 -9 112 -18 106 -9 -3 4 -29 9 -58 11 -29 1 -50 0 -48
-2z"/>
<path d="M2302 1245 c9 -9 88 -13 82 -4 -3 5 -24 9 -46 9 -23 0 -39 -2 -36 -5z"/>
<path d="M2496 1160 c4 -19 10 -44 15 -55 6 -17 8 -15 8 10 0 17 -6 41 -15 55
-15 25 -15 25 -8 -10z"/>
<path d="M1011 1103 c7 -21 7 -48 1 -85 -6 -29 -9 -54 -8 -56 2 -1 13 7 26 18
23 20 42 21 104 3 13 -4 16 -2 11 8 -6 9 -3 11 9 6 10 -4 24 -7 32 -7 8 0 14
-7 14 -15 0 -8 9 -15 21 -15 12 0 17 4 13 11 -4 7 1 7 16 -1 12 -7 25 -8 29
-4 9 13 31 15 31 3 0 -5 5 -7 11 -4 6 4 16 -1 24 -11 11 -16 18 -17 54 -8 32
9 41 8 45 -3 6 -14 66 -18 66 -4 0 5 -9 7 -20 4 -11 -3 -20 0 -20 6 0 12 42
15 54 4 10 -10 78 -14 72 -4 -4 7 110 7 140 0 5 -1 17 1 27 6 11 4 23 3 30 -4
6 -6 20 -11 31 -11 19 1 19 2 -4 16 -14 9 -17 13 -7 10 56 -18 67 -18 62 -3
-5 12 1 13 35 7 22 -4 42 -4 45 0 10 16 89 18 118 3 22 -11 39 -13 66 -6 20 5
54 6 76 1 22 -4 65 -5 96 -1 52 5 57 3 77 -22 19 -24 22 -25 23 -9 1 11 1 22
0 27 0 4 4 7 9 7 6 0 10 -18 10 -41 0 -22 4 -38 8 -35 5 3 7 19 4 36 -2 16 1
36 6 43 13 15 12 57 -1 57 -4 0 -7 -8 -5 -17 3 -16 -6 -18 -87 -16 -49 0 -147
7 -216 13 -109 11 -136 10 -205 -4 -92 -19 -523 -23 -640 -6 -266 38 -283 42
-255 59 11 7 11 12 2 22 -6 8 -18 23 -26 34 -13 18 -14 17 -4 -12z"/>
<path d="M838 1104 c-15 -8 -31 -26 -34 -39 -3 -14 -12 -29 -19 -33 -15 -9
-30 -52 -17 -52 5 0 15 12 23 28 27 52 90 92 72 45 -5 -12 -2 -15 10 -10 12 4
17 -1 20 -21 3 -21 4 -19 6 10 1 39 -13 88 -26 88 -5 -1 -20 -7 -35 -16z"/>
<path d="M1998 1103 c17 -2 47 -2 65 0 17 2 3 4 -33 4 -36 0 -50 -2 -32 -4z"/>
<path d="M540 1052 c0 -19 19 -52 30 -52 16 0 12 16 -10 41 -11 14 -19 18 -20
11z"/>
<path d="M455 989 c-22 -3 -32 -7 -22 -8 15 -1 23 -20 17 -46 -1 -5 7 -2 17 8
17 15 22 15 39 2 10 -8 15 -15 9 -15 -6 0 -5 -3 1 -8 6 -4 21 -27 32 -51 l22
-44 -83 5 c-45 3 -74 3 -64 1 9 -3 17 -13 17 -23 0 -24 -20 -37 -21 -13 0 12
-4 9 -11 -9 -5 -16 -14 -28 -19 -28 -6 0 -7 -4 -4 -10 9 -15 25 -12 25 4 0 8
9 18 20 21 11 3 20 10 20 15 0 13 73 18 99 6 l24 -11 -24 -6 c-24 -7 -24 -7 3
-8 15 -1 29 -5 33 -10 10 -17 13 -121 4 -127 -5 -3 -5 -13 1 -25 6 -11 8 -24
5 -29 -3 -6 1 -7 9 -4 17 7 22 24 7 24 -6 0 -6 12 -1 30 12 41 4 101 -25 185
-13 39 -28 89 -34 111 -14 53 -43 72 -96 63z"/>
<path d="M602 955 c-15 -33 -16 -32 8 -38 11 -3 20 -13 20 -24 0 -10 7 -27 15
-37 8 -11 15 -40 15 -65 0 -25 7 -67 14 -93 14 -44 14 -47 -5 -53 -10 -4 -19
-10 -19 -15 0 -13 41 -19 64 -9 29 14 33 81 7 125 -10 17 -27 65 -37 107 -13
58 -20 74 -30 66 -15 -12 -45 26 -37 47 9 25 -3 15 -15 -11z"/>
<path d="M2946 943 c-8 -20 -7 -20 28 -14 l30 6 -26 12 c-22 10 -27 9 -32 -4z"/>
<path d="M984 889 c3 -34 6 -84 6 -110 0 -43 3 -49 20 -49 16 0 19 4 12 18 -4
9 -7 23 -6 30 1 6 2 17 3 23 0 5 6 7 12 3 8 -5 8 -1 0 13 -12 24 -6 33 23 33
18 0 19 -2 6 -11 -12 -8 -10 -9 8 -4 37 11 122 -4 122 -22 0 -8 5 -11 11 -7
18 11 132 5 140 -8 4 -6 20 -8 42 -4 20 4 37 2 39 -3 1 -5 34 -12 71 -15 58
-4 68 -2 63 10 -5 12 -1 14 17 7 26 -9 299 -5 307 6 7 10 96 31 130 31 16 0
31 -4 35 -10 4 -6 15 -5 30 2 19 8 28 8 41 -3 11 -9 19 -10 21 -4 2 7 34 8 96
2 137 -12 157 -16 157 -32 0 -8 4 -15 10 -15 14 0 60 -53 60 -69 0 -8 2 -12 5
-9 11 11 -19 86 -32 81 -9 -3 -13 4 -13 21 0 29 16 35 23 9 4 -14 5 -12 6 5 1
18 -4 22 -31 22 -39 0 -283 18 -340 25 -22 3 -84 -2 -137 -12 -74 -14 -151
-18 -336 -18 -245 0 -282 2 -465 30 -108 16 -161 38 -142 57 12 12 5 38 -10
38 -7 0 -9 -22 -4 -61z"/>
<path d="M773 922 c-23 -3 -33 -32 -12 -32 11 0 44 29 38 33 -2 2 -14 1 -26
-1z"/>
<path d="M2134 908 c-5 -7 -2 -9 9 -5 9 3 18 1 21 -6 2 -7 5 -7 5 -2 1 7 17 9
39 7 20 -3 34 -1 30 3 -12 13 -97 15 -104 3z"/>
<path d="M1571 899 c18 -11 66 -12 73 0 4 5 -15 9 -41 9 -31 0 -42 -3 -32 -9z"/>
<path d="M821 873 c-33 -7 -68 -40 -55 -53 8 -8 15 -6 24 5 7 8 20 15 29 15
18 0 41 18 41 32 0 4 -3 7 -7 7 -5 -1 -19 -4 -32 -6z"/>
<path d="M848 804 c-20 -38 -24 -99 -8 -109 20 -13 11 -64 -15 -81 -14 -9 -25
-22 -25 -29 0 -16 -55 -39 -75 -32 -8 4 -12 13 -9 22 4 11 2 14 -9 9 -8 -3
-17 -15 -20 -26 -3 -12 -10 -17 -17 -13 -6 4 -9 13 -6 21 7 18 -10 18 -21 1
-10 -17 -151 -6 -162 12 -4 6 -27 12 -52 12 -133 3 -159 5 -159 12 0 10 -23 4
-32 -8 -5 -6 -15 -5 -28 3 -11 7 -26 9 -33 5 -15 -9 21 -18 168 -43 188 -31
368 -48 670 -65 154 -8 345 -20 425 -25 210 -16 765 -26 980 -19 244 9 355 23
430 56 33 14 59 27 58 29 -2 1 -26 -2 -53 -7 -114 -23 -109 -22 -152 -16 -33
4 -45 -6 -20 -17 6 -3 -1 -4 -16 -2 -16 2 -44 0 -63 -4 -23 -5 -32 -4 -27 3 4
6 -2 8 -18 4 -13 -4 -33 -7 -44 -7 -17 0 -18 -2 -5 -10 16 -11 -74 -7 -159 6
-30 5 -45 3 -51 -6 -5 -8 -15 -10 -26 -6 -27 11 -264 13 -264 2 0 -4 -17 -5
-37 -1 -21 4 -67 7 -103 7 -55 -1 -61 1 -40 10 14 6 36 12 50 13 14 1 61 10
105 19 70 15 93 16 183 5 56 -6 105 -9 109 -5 3 3 -5 6 -18 7 -25 1 -28 1 -96
17 -23 5 -55 8 -72 6 -20 -2 -31 1 -31 9 0 9 -2 9 -9 -1 -7 -11 -58 -23 -156
-37 -11 -1 -27 -5 -35 -8 -33 -13 -155 -26 -160 -18 -3 5 -30 8 -60 7 -30 -1
-70 1 -88 5 -17 4 -35 3 -38 -2 -3 -5 -10 -7 -15 -3 -9 5 -87 9 -99 4 -3 -1
-23 -3 -45 -4 -22 -1 -51 -5 -65 -9 -20 -6 -19 -4 5 8 l30 15 -42 -5 c-33 -4
-42 -1 -46 13 -4 16 -5 16 -6 0 -1 -20 -43 -24 -85 -8 -13 5 -46 10 -71 11
-47 3 -67 15 -45 29 8 5 7 9 -5 14 -13 5 -15 9 -6 20 7 8 14 28 16 46 2 18 6
35 9 37 3 3 25 1 48 -5 24 -6 68 -14 98 -17 57 -6 99 -23 99 -40 0 -5 11 -11
23 -12 14 -2 17 0 8 4 -32 13 -39 42 -10 40 11 -1 20 -5 20 -9 0 -4 7 -5 15
-2 8 4 23 3 33 -1 26 -11 388 -7 457 4 33 6 83 14 110 19 28 4 77 7 110 6 33
-2 97 -4 143 -4 45 -1 85 -6 88 -11 3 -5 9 -7 14 -4 8 5 84 -8 113 -20 12 -5
17 -2 17 9 0 9 7 16 15 16 8 0 15 6 15 14 0 9 -7 12 -17 10 -10 -3 -115 2
-233 10 -193 13 -222 13 -280 -1 -101 -24 -531 -29 -680 -9 -63 9 -133 19
-155 22 -22 3 -44 10 -49 15 -23 22 -32 2 -41 -97 -7 -70 -24 -88 -75 -79 -19
4 -36 11 -38 16 -2 5 -8 9 -13 9 -6 0 -7 -4 -4 -10 4 -6 -8 -10 -29 -10 -42 0
-44 8 -12 43 31 34 48 81 33 96 -8 8 -8 11 0 11 7 0 20 -12 31 -27 15 -22 17
-33 9 -51 -6 -12 -7 -25 -4 -29 28 -27 26 121 -3 197 -11 30 -20 56 -20 57 0
2 -3 3 -7 3 -5 0 -16 -16 -25 -36z"/>
<path d="M55 751 c-3 -7 -15 -9 -26 -6 -14 5 -17 3 -13 -9 7 -17 18 -19 46 -8
11 5 14 12 9 21 -6 9 -10 10 -16 2z"/>
<path d="M1683 734 c-3 -8 -13 -14 -22 -15 -10 0 -12 -2 -3 -6 7 -3 18 0 25 5
8 7 18 7 27 2 21 -14 30 -12 24 4 -8 20 -44 27 -51 10z"/>
<path d="M110 700 c0 -11 4 -20 10 -20 5 0 7 7 3 16 -4 12 -1 15 13 12 10 -2
19 -9 19 -16 0 -6 5 -11 10 -9 12 3 8 19 -8 29 -23 15 -47 8 -47 -12z"/>
<path d="M1516 708 c8 -12 84 -10 84 2 0 7 -19 10 -44 9 -25 -2 -43 -6 -40
-11z"/>
<path d="M404 685 c10 -8 43 -17 72 -21 34 -4 58 -13 65 -23 8 -14 9 -13 7 4
-2 15 -12 21 -43 24 -37 3 -38 4 -15 12 24 8 24 9 -3 5 -16 -2 -45 0 -65 5
-33 7 -35 6 -18 -6z"/>
<path d="M10 668 c0 -8 41 -38 52 -38 5 0 7 5 5 11 -1 6 4 14 12 16 9 4 11 0
6 -16 -5 -15 -2 -21 9 -21 21 0 20 13 -4 41 -17 21 -21 22 -30 9 -5 -8 -10
-10 -10 -5 0 6 -9 11 -20 11 -11 0 -20 -4 -20 -8z"/>
<path d="M200 653 c0 -17 6 -23 23 -23 12 0 33 -3 46 -7 18 -4 22 -3 19 8 -3
9 -16 13 -33 11 -17 -2 -32 3 -41 15 -13 17 -13 17 -14 -4z"/>
<path d="M2920 655 c0 -8 5 -15 10 -15 6 0 10 5 10 11 0 8 5 8 15 -1 12 -10
15 -10 15 0 0 7 7 10 15 6 8 -3 15 -1 15 4 0 6 -18 10 -40 10 -29 0 -40 -4
-40 -15z"/>
<path d="M392 656 c9 -11 118 -34 118 -26 0 4 -17 11 -37 15 -21 3 -49 9 -63
12 -14 3 -22 3 -18 -1z"/>
<path d="M2210 619 c25 -4 56 -8 70 -8 23 0 23 1 5 9 -11 5 -42 8 -70 8 l-50
-1 45 -8z"/>
<path d="M1157 578 c-7 -5 -1 -8 18 -9 17 0 38 -2 48 -4 9 -2 17 0 17 5 0 11
-68 18 -83 8z"/>
<path d="M1575 581 c44 -4 84 -4 88 0 5 3 -31 6 -80 6 l-88 0 80 -6z"/>
<path d="M2503 573 c18 -21 24 -69 7 -58 -14 8 -220 12 -220 4 0 -8 106 -19
181 -19 l59 0 0 35 c0 25 -6 37 -22 46 -22 12 -22 11 -5 -8z"/>
<path d="M265 530 c-6 -10 -5 -11 14 -14 5 0 18 -11 29 -24 13 -15 21 -19 24
-11 8 24 -55 69 -67 49z"/>
<path d="M40 511 c-6 -11 -6 -22 -1 -25 5 -3 11 4 14 16 5 18 8 19 22 8 11 -9
13 -16 5 -24 -12 -12 -13 -26 -1 -26 17 0 19 39 2 54 -23 21 -28 20 -41 -3z"/>
<path d="M451 501 c-11 -7 -9 -10 9 -16 16 -5 20 -12 16 -27 -3 -14 -2 -18 5
-11 10 10 2 63 -10 63 -3 0 -12 -4 -20 -9z"/>
<path d="M760 470 c0 -7 -13 -8 -34 -5 -18 4 -36 3 -39 -2 -3 -4 15 -9 39 -11
34 -2 44 1 44 13 0 8 -2 15 -5 15 -3 0 -5 -5 -5 -10z"/>
<path d="M787 449 c18 -16 51 -19 56 -5 4 10 -3 14 -29 13 -19 -1 -31 -4 -27
-8z"/>
<path d="M866 443 c-6 -15 10 -18 19 -3 8 13 46 13 65 -1 13 -9 13 -10 -1 -6
-9 3 -22 1 -30 -4 -10 -6 -3 -9 23 -9 31 0 37 3 35 20 -1 18 -7 21 -54 19 -33
-2 -54 -7 -57 -16z"/>
<path d="M1260 440 c-14 -3 -27 -14 -29 -25 -3 -18 -3 -18 15 0 17 17 19 17
22 2 2 -9 11 -17 21 -17 10 0 18 -7 18 -15 0 -8 -4 -15 -9 -15 -5 0 -8 -12 -6
-27 4 -37 41 -44 59 -12 10 19 8 25 -12 40 l-24 19 23 0 c12 0 22 4 22 9 0 5
8 12 18 14 9 3 -6 5 -35 6 -33 1 -53 6 -55 14 -2 9 -12 11 -28 7z m78 -93 c2
-10 -3 -17 -12 -17 -18 0 -29 16 -21 31 9 14 29 6 33 -14z"/>
<path d="M2786 414 c-38 -18 -73 -35 -77 -36 -19 -8 -19 -48 1 -68 18 -18 22
-19 36 -6 8 9 13 17 12 19 -2 2 4 12 12 22 8 11 10 16 4 12 -7 -4 -14 -1 -17
7 -7 17 76 58 100 50 15 -5 15 -4 3 5 -8 5 -11 13 -7 17 3 4 12 2 20 -4 7 -6
19 -7 26 -3 9 6 6 10 -11 14 -30 9 -23 11 -102 -29z m-38 -71 c-2 -10 -10 -18
-18 -18 -8 0 -16 8 -18 18 -2 12 3 17 18 17 15 0 20 -5 18 -17z"/>
<path d="M1145 431 l-40 -7 40 -12 c52 -15 51 -15 51 8 0 11 -3 19 -6 19 -3
-1 -23 -5 -45 -8z"/>
<path d="M2227 413 c-16 -57 -16 -71 -2 -83 9 -7 22 -9 32 -5 16 7 16 8 2 12
-20 5 -29 34 -23 69 5 28 -2 33 -9 7z"/>
<path d="M1400 400 c0 -19 2 -21 16 -9 9 7 18 9 22 3 8 -11 42 -12 57 -2 6 4
17 3 24 -1 7 -5 23 -6 35 -4 15 3 17 2 8 -5 -10 -7 -10 -11 2 -21 12 -10 17
-9 28 8 14 24 38 27 57 9 10 -11 11 -9 5 6 -6 16 -4 18 12 11 10 -4 30 -10 44
-12 24 -5 24 -5 5 9 -30 22 -54 28 -61 17 -6 -10 -124 -6 -216 7 -34 5 -38 3
-38 -16z"/>
<path d="M721 396 c-16 -19 2 -56 28 -56 28 0 47 28 34 48 -13 22 -47 27 -62
8z m45 -7 c10 -17 -13 -36 -27 -22 -12 12 -4 33 11 33 5 0 12 -5 16 -11z"/>
<path d="M1872 382 c-3 -8 -7 -10 -11 -4 -4 7 -13 5 -24 -3 -12 -8 -14 -15 -8
-20 6 -3 11 -2 11 3 0 10 13 12 88 11 57 0 54 18 -4 23 -32 2 -48 -1 -52 -10z"/>
<path d="M2942 382 c4 -12 2 -22 -3 -22 -5 0 -9 -4 -9 -9 0 -5 12 -8 28 -8 15
0 21 2 15 4 -7 3 -13 13 -13 23 0 10 -5 22 -12 26 -8 5 -9 0 -6 -14z"/>
<path d="M2610 348 c0 -5 6 -8 13 -8 8 0 7 -4 -3 -11 -12 -8 -10 -9 10 -7 34
4 39 33 5 33 -14 0 -25 -3 -25 -7z"/>
<path d="M1919 337 c12 -15 5 -27 -16 -27 -7 0 -13 8 -13 17 0 13 -3 14 -12 5
-8 -8 -8 -15 2 -27 18 -21 47 -19 55 5 7 22 -1 40 -17 40 -7 0 -7 -4 1 -13z"/>
<path d="M2064 341 c13 -20 -8 -41 -45 -47 -57 -9 -40 -17 19 -9 35 4 51 12
54 23 7 24 -1 42 -18 42 -9 0 -13 -4 -10 -9z"/>
<path d="M2972 314 c-13 -9 -31 -13 -45 -9 -20 5 -20 5 -5 -8 13 -10 15 -16 6
-25 -9 -9 -9 -12 -1 -12 6 0 19 7 27 16 9 8 22 12 28 8 10 -5 10 -4 1 6 -10
11 -9 16 5 26 24 19 11 17 -16 -2z"/>
<path d="M2488 313 c-35 -9 -17 -18 28 -15 25 2 44 5 42 7 -8 6 -55 12 -70 8z"/>
<path d="M2864 276 c-16 -14 -23 -26 -16 -26 16 0 58 38 50 45 -3 3 -19 -5
-34 -19z"/>
<path d="M56 266 c2 -11 -5 -25 -16 -33 -11 -8 -20 -19 -20 -24 0 -6 8 -3 17
7 16 15 19 15 45 -15 15 -17 28 -27 28 -23 0 5 10 14 23 20 17 8 18 11 5 11
-9 1 -20 -4 -23 -9 -4 -6 -15 -1 -26 14 -36 46 -16 78 22 35 20 -24 39 -18 39
13 0 16 -3 18 -14 9 -11 -9 -17 -9 -27 2 -8 7 -24 13 -36 13 -15 0 -20 -5 -17
-20z"/>
<path d="M2804 233 c0 -12 6 -23 12 -23 6 0 17 -7 24 -15 8 -9 9 -15 2 -15 -6
0 -14 5 -17 10 -3 6 -11 10 -16 10 -5 0 4 -13 21 -30 32 -31 52 -41 30 -15 -6
8 -9 19 -5 25 8 13 42 13 50 0 8 -12 66 -8 61 5 -1 6 -17 9 -34 7 -18 -2 -32
1 -32 7 0 5 -12 8 -26 5 -31 -6 -56 13 -49 36 3 10 0 17 -9 17 -8 0 -13 -10
-12 -24z"/>
<path d="M907 243 c-14 -4 -16 -8 -6 -19 6 -7 8 -22 4 -31 -9 -25 -8 -27 20
-30 14 -2 25 1 25 6 0 6 -6 8 -14 5 -8 -3 -17 -1 -21 5 -3 6 1 14 10 17 13 5
13 9 3 22 -11 13 -8 15 28 10 23 -3 48 -2 55 3 10 6 2 9 -23 9 -20 0 -42 2
-50 4 -7 2 -21 2 -31 -1z"/>
<path d="M2875 230 c-15 -7 -10 -9 23 -9 23 -1 42 3 42 7 0 11 -41 12 -65 2z"/>
<path d="M1071 226 c12 -10 79 -16 79 -6 0 5 -19 10 -42 10 -23 0 -39 -2 -37
-4z"/>
<path d="M1320 210 c41 -4 79 -4 85 1 5 5 -27 8 -75 8 l-85 -2 75 -7z"/>
<path d="M2700 203 c0 -10 6 -13 16 -9 11 4 18 -1 21 -15 3 -11 11 -18 18 -15
7 2 21 -4 31 -15 16 -17 16 -22 4 -30 -11 -8 -12 -12 -2 -16 20 -8 14 -22 -8
-16 -11 3 -20 0 -20 -6 0 -6 11 -11 24 -11 19 0 23 -4 19 -20 -5 -18 -7 -18
-26 -5 -29 20 -60 20 -33 0 10 -8 22 -12 27 -10 4 3 10 1 14 -4 9 -15 35 -1
28 15 -3 8 0 14 7 14 9 0 9 4 -1 17 -13 15 -12 16 9 11 12 -4 22 -2 22 2 0 5
3 15 6 23 4 11 -5 19 -31 28 -26 10 -38 21 -44 44 -5 16 -10 24 -10 17 -1 -9
-9 -9 -36 2 -31 13 -35 13 -35 -1z"/>
<path d="M48 187 c-3 -13 -2 -32 2 -42 6 -17 7 -16 13 6 9 34 9 59 -2 59 -5 0
-11 -10 -13 -23z"/>
<path d="M1451 206 c9 -8 98 -13 93 -5 -3 5 -26 9 -51 9 -26 0 -44 -2 -42 -4z"/>
<path d="M585 190 c4 -6 1 -25 -5 -44 -12 -39 -6 -62 20 -69 13 -3 17 0 13 9
-3 8 -11 14 -19 14 -10 0 -11 6 -4 25 5 14 6 25 3 25 -4 0 -2 5 4 11 13 13 6
39 -9 39 -5 0 -6 -5 -3 -10z"/>
<path d="M2670 186 c0 -15 -3 -16 -14 -7 -10 9 -15 8 -19 -3 -4 -10 1 -13 19
-11 32 3 41 12 26 27 -9 9 -12 8 -12 -6z"/>
<path d="M2335 180 c-16 -4 -22 -8 -12 -9 9 0 17 -6 17 -12 0 -6 7 -3 16 6 19
18 39 15 39 -6 0 -8 -8 -13 -18 -11 -16 3 -16 1 -5 -18 10 -16 14 -17 16 -5 2
8 12 15 23 15 14 0 19 7 19 25 0 22 -4 25 -32 24 -18 -1 -46 -5 -63 -9z"/>
<path d="M2445 181 c3 -6 12 -8 19 -5 8 3 16 -4 19 -15 3 -14 0 -21 -10 -21
-8 0 -12 -4 -8 -10 9 -14 36 0 33 19 -2 10 4 16 17 16 14 0 19 -6 18 -22 -1
-11 4 -24 12 -27 19 -7 19 -2 0 38 -14 29 -21 33 -61 34 -27 2 -43 -2 -39 -7z"/>
<path d="M2703 166 c-10 -11 -11 -35 -3 -56 1 -3 3 -11 4 -19 0 -8 8 -16 16
-19 8 -3 12 -1 8 3 -12 13 12 34 30 28 15 -6 15 -5 3 10 -9 12 -17 14 -26 7
-9 -7 -11 -1 -10 25 1 38 -3 42 -22 21z"/>
<path d="M141 150 c-1 -8 -11 -21 -22 -28 -17 -11 -19 -16 -9 -25 10 -9 14 -9
17 1 3 6 11 12 19 12 16 0 16 6 4 35 -6 13 -9 15 -9 5z"/>
<path d="M517 140 c4 -16 -2 -23 -26 -31 -34 -12 -37 -19 -19 -37 14 -14 4
-16 -20 -3 -11 6 -21 4 -30 -5 -11 -12 -10 -15 2 -20 9 -3 12 -12 8 -22 -5
-15 -4 -15 12 -3 13 11 14 16 4 22 -7 4 -9 11 -5 15 3 4 13 2 20 -4 8 -7 17
-9 21 -5 4 4 11 1 16 -7 7 -10 10 -11 10 -2 0 6 -9 21 -19 31 -20 20 -20 20 2
27 12 4 25 12 29 18 11 16 10 46 -1 46 -5 0 -7 -9 -4 -20z"/>
<path d="M2897 148 c4 -7 8 -20 8 -28 0 -20 46 -20 61 0 9 11 8 17 -5 27 -22
17 -75 17 -64 1z"/>
<path d="M2627 144 c-3 -3 -1 -14 6 -25 15 -24 1 -36 -23 -21 -17 10 -20 10
-20 -3 0 -10 10 -15 28 -15 45 0 54 12 33 43 -9 15 -20 24 -24 21z"/>
<path d="M930 133 c0 -4 10 -18 23 -31 12 -14 16 -22 10 -18 -7 4 -13 2 -13
-3 0 -6 7 -11 15 -11 22 0 18 20 -10 46 -14 13 -25 20 -25 17z"/>
<path d="M37 112 c1 -8 3 -15 3 -18 0 -2 6 -1 14 2 9 3 18 -5 24 -23 l10 -28
1 33 c1 27 -2 32 -23 32 -13 0 -26 3 -29 8 -2 4 -2 1 0 -6z"/>
<path d="M1970 79 c0 -23 -4 -29 -17 -27 -13 2 -19 -5 -21 -27 -2 -29 -2 -29
13 -11 14 18 15 18 15 2 0 -9 5 -14 10 -11 6 4 8 11 5 16 -4 5 -1 9 4 9 6 0
11 -5 11 -11 0 -8 4 -8 15 1 8 6 23 9 33 6 15 -5 21 -1 24 17 6 30 -2 54 -12
37 -5 -8 -18 -10 -41 -5 -29 7 -31 9 -14 16 21 8 21 8 -7 14 -14 2 -18 -4 -18
-26z m45 -29 c0 -22 -29 -18 -33 3 -3 14 1 18 15 15 10 -2 18 -10 18 -18z"/>
<path d="M2983 89 c4 -14 -1 -23 -16 -29 -21 -8 -18 -10 21 -10 4 0 7 14 7 30
1 17 -3 30 -8 30 -5 0 -7 -9 -4 -21z"/>
<path d="M909 98 c-7 -24 -4 -38 8 -42 10 -4 13 -2 10 8 -3 7 0 19 6 25 8 8 7
11 -6 11 -9 0 -17 -1 -18 -2z"/>
<path d="M2396 78 c-11 -15 -12 -26 -5 -40 5 -10 7 -23 4 -28 -12 -19 7 -10
38 20 18 16 27 30 20 30 -6 0 -15 9 -18 20 -8 26 -20 25 -39 -2z m37 -13 c8
-18 -11 -31 -25 -17 -11 11 -3 32 12 32 4 0 10 -7 13 -15z"/>
<path d="M2520 78 c0 -10 7 -18 15 -18 8 0 15 8 15 18 0 10 -7 19 -15 19 -8 0
-15 -9 -15 -19z"/>
<path d="M553 70 c1 -11 7 -20 14 -20 15 0 17 -16 3 -25 -15 -9 -12 -25 6 -25
8 0 12 5 8 11 -3 6 -1 15 6 19 11 7 10 12 -3 25 -10 9 -17 21 -17 26 0 5 -4 9
-9 9 -6 0 -9 -9 -8 -20z"/>
<path d="M1877 47 c-12 -37 -12 -44 -1 -44 8 0 14 7 14 14 0 9 5 11 13 7 8 -6
8 -3 -1 9 -16 19 -6 41 15 33 9 -4 13 -1 11 6 -11 31 -36 18 -51 -25z"/>
<path d="M153 73 c-18 -4 -55 -33 -41 -33 17 0 68 24 68 31 0 5 -1 8 -2 8 -2
-1 -13 -4 -25 -6z"/>
<path d="M265 71 c-3 -5 0 -13 6 -16 5 -4 8 -13 5 -21 -3 -7 -1 -16 4 -19 6
-4 10 3 10 15 0 13 4 18 11 15 6 -4 5 2 -3 14 -14 23 -24 26 -33 12z"/>
<path d="M850 70 c0 -5 -7 -10 -15 -10 -9 0 -12 -6 -9 -15 5 -11 10 -13 19 -5
9 8 14 7 17 -2 3 -9 6 -8 10 3 3 8 -1 20 -8 27 -8 7 -14 8 -14 2z"/>
<path d="M194 61 c3 -5 -1 -14 -9 -21 -8 -7 -15 -9 -15 -5 0 4 -7 2 -15 -5 -8
-7 -15 -17 -15 -23 0 -7 4 -7 12 1 7 7 18 12 26 12 14 0 41 27 42 43 0 4 -7 7
-16 7 -8 0 -13 -4 -10 -9z"/>
<path d="M620 60 c-13 -9 -13 -11 0 -20 24 -16 39 -12 33 10 -6 22 -11 24 -33
10z"/>
<path d="M770 40 c-26 -19 -24 -35 3 -25 11 5 33 46 24 45 -1 0 -13 -9 -27
-20z"/>
<path d="M2590 51 c0 -6 7 -11 16 -11 8 0 13 -4 9 -9 -3 -5 0 -13 6 -16 7 -5
9 1 7 16 -3 23 -38 41 -38 20z"/>
<path d="M2500 41 c0 -6 -9 -11 -20 -11 -21 0 -27 -15 -10 -25 6 -3 10 -1 10
6 0 6 8 9 20 6 21 -5 29 16 10 28 -5 3 -10 1 -10 -4z"/>
<path d="M1205 30 c3 -6 15 -10 26 -10 10 0 19 -4 19 -10 0 -5 7 -7 16 -3 21
8 6 19 -34 27 -21 3 -31 2 -27 -4z"/>
<path d="M1390 30 c-8 -5 -11 -12 -7 -17 5 -4 12 -1 17 7 8 13 10 12 10 -3 0
-15 2 -16 14 -5 10 9 11 15 2 20 -14 10 -18 10 -36 -2z"/>
</g>
</svg>
